<?xml version="1.0" encoding="UTF-8" standalone="no"?>
<!DOCTYPE svg PUBLIC "-//W3C//DTD SVG 1.1//EN"
 "http://www.w3.org/Graphics/SVG/1.1/DTD/svg11.dtd">
<!-- Generated by graphviz version 2.43.0 (0)
 -->
<!-- Title: one_bit_comparator Pages: 1 -->
<svg width="586pt" height="208pt"
 viewBox="0.00 0.00 586.28 208.00" xmlns="http://www.w3.org/2000/svg" xmlns:xlink="http://www.w3.org/1999/xlink">
<g id="graph0" class="graph" transform="scale(1 1) rotate(0) translate(4 204)">
<title>one_bit_comparator</title>
<polygon fill="white" stroke="transparent" points="-4,4 -4,-204 582.28,-204 582.28,4 -4,4"/>
<text text-anchor="middle" x="289.14" y="-7.8" font-family="Times,serif" font-size="14.00">one_bit_comparator</text>
<!-- n5 -->
<g id="node1" class="node">
<title>n5</title>
<polygon fill="none" stroke="black" points="445.15,-169.04 445.15,-183.96 427.05,-194.5 401.44,-194.5 383.34,-183.96 383.34,-169.04 401.44,-158.5 427.05,-158.5 445.15,-169.04"/>
<text text-anchor="middle" x="414.24" y="-172.8" font-family="Times,serif" font-size="14.00">less</text>
</g>
<!-- n6 -->
<g id="node2" class="node">
<title>n6</title>
<polygon fill="none" stroke="black" points="463.73,-104.04 463.73,-118.96 434.74,-129.5 393.74,-129.5 364.75,-118.96 364.75,-104.04 393.74,-93.5 434.74,-93.5 463.73,-104.04"/>
<text text-anchor="middle" x="414.24" y="-107.8" font-family="Times,serif" font-size="14.00">greater</text>
</g>
<!-- n7 -->
<g id="node3" class="node">
<title>n7</title>
<polygon fill="none" stroke="black" points="578.18,-39.04 578.18,-53.96 555.16,-64.5 522.61,-64.5 499.59,-53.96 499.59,-39.04 522.61,-28.5 555.16,-28.5 578.18,-39.04"/>
<text text-anchor="middle" x="538.88" y="-42.8" font-family="Times,serif" font-size="14.00">equal</text>
</g>
<!-- n8 -->
<g id="node4" class="node">
<title>n8</title>
<polygon fill="none" stroke="black" points="54,-77.04 54,-91.96 38.18,-102.5 15.82,-102.5 0,-91.96 0,-77.04 15.82,-66.5 38.18,-66.5 54,-77.04"/>
<text text-anchor="middle" x="27" y="-80.8" font-family="Times,serif" font-size="14.00">b</text>
</g>
<!-- c13 -->
<g id="node6" class="node">
<title>c13</title>
<polygon fill="none" stroke="black" points="96.5,-153.5 96.5,-199.5 185.5,-199.5 185.5,-153.5 96.5,-153.5"/>
<text text-anchor="middle" x="110" y="-184.3" font-family="Times,serif" font-size="14.00">A</text>
<polyline fill="none" stroke="black" points="96.5,-176.5 123.5,-176.5 "/>
<text text-anchor="middle" x="110" y="-161.3" font-family="Times,serif" font-size="14.00">B</text>
<polyline fill="none" stroke="black" points="123.5,-153.5 123.5,-199.5 "/>
<text text-anchor="middle" x="141.5" y="-180.3" font-family="Times,serif" font-size="14.00">$4</text>
<text text-anchor="middle" x="141.5" y="-165.3" font-family="Times,serif" font-size="14.00">$lt</text>
<polyline fill="none" stroke="black" points="159.5,-153.5 159.5,-199.5 "/>
<text text-anchor="middle" x="172.5" y="-172.8" font-family="Times,serif" font-size="14.00">Y</text>
</g>
<!-- n8&#45;&gt;c13 -->
<g id="edge8" class="edge">
<title>n8:e&#45;&gt;c13:w</title>
<path fill="none" stroke="black" d="M54,-84.5C89.9,-84.5 62.14,-149.08 85.1,-162.19"/>
<polygon fill="black" stroke="black" points="84.47,-165.64 95,-164.5 86.06,-158.82 84.47,-165.64"/>
</g>
<!-- c14 -->
<g id="node7" class="node">
<title>c14</title>
<polygon fill="none" stroke="black" points="94,-88.5 94,-134.5 188,-134.5 188,-88.5 94,-88.5"/>
<text text-anchor="middle" x="107.5" y="-119.3" font-family="Times,serif" font-size="14.00">A</text>
<polyline fill="none" stroke="black" points="94,-111.5 121,-111.5 "/>
<text text-anchor="middle" x="107.5" y="-96.3" font-family="Times,serif" font-size="14.00">B</text>
<polyline fill="none" stroke="black" points="121,-88.5 121,-134.5 "/>
<text text-anchor="middle" x="141.5" y="-115.3" font-family="Times,serif" font-size="14.00">$3</text>
<text text-anchor="middle" x="141.5" y="-100.3" font-family="Times,serif" font-size="14.00">$gt</text>
<polyline fill="none" stroke="black" points="162,-88.5 162,-134.5 "/>
<text text-anchor="middle" x="175" y="-107.8" font-family="Times,serif" font-size="14.00">Y</text>
</g>
<!-- n8&#45;&gt;c14 -->
<g id="edge9" class="edge">
<title>n8:e&#45;&gt;c14:w</title>
<path fill="none" stroke="black" d="M54,-84.5C68.51,-84.5 72.82,-93.66 82.86,-97.66"/>
<polygon fill="black" stroke="black" points="82.54,-101.16 93,-99.5 83.79,-94.27 82.54,-101.16"/>
</g>
<!-- c16 -->
<g id="node9" class="node">
<title>c16</title>
<polygon fill="none" stroke="black" points="90,-23.5 90,-69.5 192,-69.5 192,-23.5 90,-23.5"/>
<text text-anchor="middle" x="103.5" y="-54.3" font-family="Times,serif" font-size="14.00">A</text>
<polyline fill="none" stroke="black" points="90,-46.5 117,-46.5 "/>
<text text-anchor="middle" x="103.5" y="-31.3" font-family="Times,serif" font-size="14.00">B</text>
<polyline fill="none" stroke="black" points="117,-23.5 117,-69.5 "/>
<text text-anchor="middle" x="141.5" y="-50.3" font-family="Times,serif" font-size="14.00">$1</text>
<text text-anchor="middle" x="141.5" y="-35.3" font-family="Times,serif" font-size="14.00">$xor</text>
<polyline fill="none" stroke="black" points="166,-23.5 166,-69.5 "/>
<text text-anchor="middle" x="179" y="-42.8" font-family="Times,serif" font-size="14.00">Y</text>
</g>
<!-- n8&#45;&gt;c16 -->
<g id="edge10" class="edge">
<title>n8:e&#45;&gt;c16:w</title>
<path fill="none" stroke="black" d="M54,-84.5C77.1,-84.5 67.35,-48.9 80.19,-37.78"/>
<polygon fill="black" stroke="black" points="81.63,-40.99 90,-34.5 79.41,-34.35 81.63,-40.99"/>
</g>
<!-- n9 -->
<g id="node5" class="node">
<title>n9</title>
<polygon fill="none" stroke="black" points="54,-131.04 54,-145.96 38.18,-156.5 15.82,-156.5 0,-145.96 0,-131.04 15.82,-120.5 38.18,-120.5 54,-131.04"/>
<text text-anchor="middle" x="27" y="-134.8" font-family="Times,serif" font-size="14.00">a</text>
</g>
<!-- n9&#45;&gt;c13 -->
<g id="edge11" class="edge">
<title>n9:e&#45;&gt;c13:w</title>
<path fill="none" stroke="black" d="M54,-138.5C78.7,-138.5 70,-175.43 85.31,-185.81"/>
<polygon fill="black" stroke="black" points="84.43,-189.2 95,-188.5 86.3,-182.45 84.43,-189.2"/>
</g>
<!-- n9&#45;&gt;c14 -->
<g id="edge12" class="edge">
<title>n9:e&#45;&gt;c14:w</title>
<path fill="none" stroke="black" d="M54,-138.5C68.51,-138.5 72.82,-129.34 82.86,-125.34"/>
<polygon fill="black" stroke="black" points="83.79,-128.73 93,-123.5 82.54,-121.84 83.79,-128.73"/>
</g>
<!-- n9&#45;&gt;c16 -->
<g id="edge13" class="edge">
<title>n9:e&#45;&gt;c16:w</title>
<path fill="none" stroke="black" d="M54,-138.5C88.88,-138.5 58.96,-74.49 80.18,-60.98"/>
<polygon fill="black" stroke="black" points="81.16,-64.34 90,-58.5 79.45,-57.56 81.16,-64.34"/>
</g>
<!-- x2 -->
<g id="node12" class="node">
<title>x2</title>
<path fill="none" stroke="black" d="M293.5,-194.5C293.5,-194.5 263.5,-194.5 263.5,-194.5 257.5,-194.5 251.5,-188.5 251.5,-182.5 251.5,-182.5 251.5,-170.5 251.5,-170.5 251.5,-164.5 257.5,-158.5 263.5,-158.5 263.5,-158.5 293.5,-158.5 293.5,-158.5 299.5,-158.5 305.5,-164.5 305.5,-170.5 305.5,-170.5 305.5,-182.5 305.5,-182.5 305.5,-188.5 299.5,-194.5 293.5,-194.5"/>
<text text-anchor="middle" x="278.5" y="-172.8" font-family="Times,serif" font-size="14.00">BUF</text>
</g>
<!-- c13&#45;&gt;x2 -->
<g id="edge1" class="edge">
<title>c13:e&#45;&gt;x2:w</title>
<path fill="none" stroke="black" d="M187,-176.5C211.47,-176.5 220.03,-176.5 240.28,-176.5"/>
<polygon fill="black" stroke="black" points="240.5,-180 250.5,-176.5 240.5,-173 240.5,-180"/>
</g>
<!-- x1 -->
<g id="node11" class="node">
<title>x1</title>
<path fill="none" stroke="black" d="M293.5,-129.5C293.5,-129.5 263.5,-129.5 263.5,-129.5 257.5,-129.5 251.5,-123.5 251.5,-117.5 251.5,-117.5 251.5,-105.5 251.5,-105.5 251.5,-99.5 257.5,-93.5 263.5,-93.5 263.5,-93.5 293.5,-93.5 293.5,-93.5 299.5,-93.5 305.5,-99.5 305.5,-105.5 305.5,-105.5 305.5,-117.5 305.5,-117.5 305.5,-123.5 299.5,-129.5 293.5,-129.5"/>
<text text-anchor="middle" x="278.5" y="-107.8" font-family="Times,serif" font-size="14.00">BUF</text>
</g>
<!-- c14&#45;&gt;x1 -->
<g id="edge2" class="edge">
<title>c14:e&#45;&gt;x1:w</title>
<path fill="none" stroke="black" d="M189,-111.5C212.6,-111.5 220.91,-111.5 240.33,-111.5"/>
<polygon fill="black" stroke="black" points="240.5,-115 250.5,-111.5 240.5,-108 240.5,-115"/>
</g>
<!-- c15 -->
<g id="node8" class="node">
<title>c15</title>
<polygon fill="none" stroke="black" points="228,-27.5 228,-65.5 329,-65.5 329,-27.5 228,-27.5"/>
<text text-anchor="middle" x="241" y="-42.8" font-family="Times,serif" font-size="14.00">A</text>
<polyline fill="none" stroke="black" points="254,-27.5 254,-65.5 "/>
<text text-anchor="middle" x="278.5" y="-50.3" font-family="Times,serif" font-size="14.00">$2</text>
<text text-anchor="middle" x="278.5" y="-35.3" font-family="Times,serif" font-size="14.00">$not</text>
<polyline fill="none" stroke="black" points="303,-27.5 303,-65.5 "/>
<text text-anchor="middle" x="316" y="-42.8" font-family="Times,serif" font-size="14.00">Y</text>
</g>
<!-- x0 -->
<g id="node10" class="node">
<title>x0</title>
<path fill="none" stroke="black" d="M429.24,-64.5C429.24,-64.5 399.24,-64.5 399.24,-64.5 393.24,-64.5 387.24,-58.5 387.24,-52.5 387.24,-52.5 387.24,-40.5 387.24,-40.5 387.24,-34.5 393.24,-28.5 399.24,-28.5 399.24,-28.5 429.24,-28.5 429.24,-28.5 435.24,-28.5 441.24,-34.5 441.24,-40.5 441.24,-40.5 441.24,-52.5 441.24,-52.5 441.24,-58.5 435.24,-64.5 429.24,-64.5"/>
<text text-anchor="middle" x="414.24" y="-42.8" font-family="Times,serif" font-size="14.00">BUF</text>
</g>
<!-- c15&#45;&gt;x0 -->
<g id="edge3" class="edge">
<title>c15:e&#45;&gt;x0:w</title>
<path fill="none" stroke="black" d="M329,-46.5C350.67,-46.5 358.49,-46.5 376.05,-46.5"/>
<polygon fill="black" stroke="black" points="376.24,-50 386.24,-46.5 376.24,-43 376.24,-50"/>
</g>
<!-- c16&#45;&gt;c15 -->
<g id="edge4" class="edge">
<title>c16:e&#45;&gt;c15:w</title>
<path fill="none" stroke="black" d="M192,-46.5C204,-46.5 209.25,-46.5 217.88,-46.5"/>
<polygon fill="black" stroke="black" points="218,-50 228,-46.5 218,-43 218,-50"/>
</g>
<!-- x0&#45;&gt;n7 -->
<g id="edge7" class="edge">
<title>x0:e&#45;&gt;n7:w</title>
<path fill="none" stroke="black" d="M442.24,-46.5C463.91,-46.5 471.74,-46.5 489.3,-46.5"/>
<polygon fill="black" stroke="black" points="489.49,-50 499.49,-46.5 489.49,-43 489.49,-50"/>
</g>
<!-- x1&#45;&gt;n6 -->
<g id="edge6" class="edge">
<title>x1:e&#45;&gt;n6:w</title>
<path fill="none" stroke="black" d="M306.5,-111.5C328.64,-111.5 336.64,-111.5 354.58,-111.5"/>
<polygon fill="black" stroke="black" points="355,-115 365,-111.5 355,-108 355,-115"/>
</g>
<!-- x2&#45;&gt;n5 -->
<g id="edge5" class="edge">
<title>x2:e&#45;&gt;n5:w</title>
<path fill="none" stroke="black" d="M306.5,-176.5C336.48,-176.5 346.44,-176.5 372.04,-176.5"/>
<polygon fill="black" stroke="black" points="372.24,-180 382.24,-176.5 372.24,-173 372.24,-180"/>
</g>
</g>
</svg>
