<?xml version="1.0" encoding="UTF-8" standalone="no"?>
<!DOCTYPE svg PUBLIC "-//W3C//DTD SVG 1.1//EN"
 "http://www.w3.org/Graphics/SVG/1.1/DTD/svg11.dtd">
<!-- Generated by graphviz version 2.43.0 (0)
 -->
<!-- Title: decoder2to4 Pages: 1 -->
<svg width="524pt" height="377pt"
 viewBox="0.00 0.00 524.00 377.00" xmlns="http://www.w3.org/2000/svg" xmlns:xlink="http://www.w3.org/1999/xlink">
<g id="graph0" class="graph" transform="scale(1 1) rotate(0) translate(4 373)">
<title>decoder2to4</title>
<polygon fill="white" stroke="transparent" points="-4,4 -4,-373 520,-373 520,4 -4,4"/>
<text text-anchor="middle" x="258" y="-7.8" font-family="Times,serif" font-size="14.00">decoder2to4</text>
<!-- n9 -->
<g id="node1" class="node">
<title>n9</title>
<polygon fill="none" stroke="black" points="426,-185.04 426,-199.96 410.18,-210.5 387.82,-210.5 372,-199.96 372,-185.04 387.82,-174.5 410.18,-174.5 426,-185.04"/>
<text text-anchor="middle" x="399" y="-188.8" font-family="Times,serif" font-size="14.00">y3</text>
</g>
<!-- n10 -->
<g id="node2" class="node">
<title>n10</title>
<polygon fill="none" stroke="black" points="516,-118.04 516,-132.96 500.18,-143.5 477.82,-143.5 462,-132.96 462,-118.04 477.82,-107.5 500.18,-107.5 516,-118.04"/>
<text text-anchor="middle" x="489" y="-121.8" font-family="Times,serif" font-size="14.00">y2</text>
</g>
<!-- n11 -->
<g id="node3" class="node">
<title>n11</title>
<polygon fill="none" stroke="black" points="516,-39.04 516,-53.96 500.18,-64.5 477.82,-64.5 462,-53.96 462,-39.04 477.82,-28.5 500.18,-28.5 516,-39.04"/>
<text text-anchor="middle" x="489" y="-42.8" font-family="Times,serif" font-size="14.00">y1</text>
</g>
<!-- n12 -->
<g id="node4" class="node">
<title>n12</title>
<polygon fill="none" stroke="black" points="516,-294.04 516,-308.96 500.18,-319.5 477.82,-319.5 462,-308.96 462,-294.04 477.82,-283.5 500.18,-283.5 516,-294.04"/>
<text text-anchor="middle" x="489" y="-297.8" font-family="Times,serif" font-size="14.00">y0</text>
</g>
<!-- n13 -->
<g id="node5" class="node">
<title>n13</title>
<polygon fill="none" stroke="black" points="54,-139.04 54,-153.96 38.18,-164.5 15.82,-164.5 0,-153.96 0,-139.04 15.82,-128.5 38.18,-128.5 54,-139.04"/>
<text text-anchor="middle" x="27" y="-142.8" font-family="Times,serif" font-size="14.00">b</text>
</g>
<!-- c18 -->
<g id="node7" class="node">
<title>c18</title>
<polygon fill="none" stroke="black" points="90,-169.5 90,-215.5 195,-215.5 195,-169.5 90,-169.5"/>
<text text-anchor="middle" x="103.5" y="-200.3" font-family="Times,serif" font-size="14.00">A</text>
<polyline fill="none" stroke="black" points="90,-192.5 117,-192.5 "/>
<text text-anchor="middle" x="103.5" y="-177.3" font-family="Times,serif" font-size="14.00">B</text>
<polyline fill="none" stroke="black" points="117,-169.5 117,-215.5 "/>
<text text-anchor="middle" x="143" y="-196.3" font-family="Times,serif" font-size="14.00">$8</text>
<text text-anchor="middle" x="143" y="-181.3" font-family="Times,serif" font-size="14.00">$and</text>
<polyline fill="none" stroke="black" points="169,-169.5 169,-215.5 "/>
<text text-anchor="middle" x="182" y="-188.8" font-family="Times,serif" font-size="14.00">Y</text>
</g>
<!-- n13&#45;&gt;c18 -->
<g id="edge5" class="edge">
<title>n13:e&#45;&gt;c18:w</title>
<path fill="none" stroke="black" d="M54,-146.5C71.88,-146.5 69.94,-168.95 80.39,-177.36"/>
<polygon fill="black" stroke="black" points="79.41,-180.72 90,-180.5 81.58,-174.07 79.41,-180.72"/>
</g>
<!-- c20 -->
<g id="node9" class="node">
<title>c20</title>
<polygon fill="none" stroke="black" points="92,-55.5 92,-93.5 193,-93.5 193,-55.5 92,-55.5"/>
<text text-anchor="middle" x="105" y="-70.8" font-family="Times,serif" font-size="14.00">A</text>
<polyline fill="none" stroke="black" points="118,-55.5 118,-93.5 "/>
<text text-anchor="middle" x="142.5" y="-78.3" font-family="Times,serif" font-size="14.00">$6</text>
<text text-anchor="middle" x="142.5" y="-63.3" font-family="Times,serif" font-size="14.00">$not</text>
<polyline fill="none" stroke="black" points="167,-55.5 167,-93.5 "/>
<text text-anchor="middle" x="180" y="-70.8" font-family="Times,serif" font-size="14.00">Y</text>
</g>
<!-- n13&#45;&gt;c20 -->
<g id="edge6" class="edge">
<title>n13:e&#45;&gt;c20:w</title>
<path fill="none" stroke="black" d="M54,-146.5C85.67,-146.5 61.91,-90.39 80.59,-77.23"/>
<polygon fill="black" stroke="black" points="81.79,-80.53 90.5,-74.5 79.93,-73.79 81.79,-80.53"/>
</g>
<!-- c21 -->
<g id="node10" class="node">
<title>c21</title>
<polygon fill="none" stroke="black" points="231,-23.5 231,-69.5 336,-69.5 336,-23.5 231,-23.5"/>
<text text-anchor="middle" x="244.5" y="-54.3" font-family="Times,serif" font-size="14.00">A</text>
<polyline fill="none" stroke="black" points="231,-46.5 258,-46.5 "/>
<text text-anchor="middle" x="244.5" y="-31.3" font-family="Times,serif" font-size="14.00">B</text>
<polyline fill="none" stroke="black" points="258,-23.5 258,-69.5 "/>
<text text-anchor="middle" x="284" y="-50.3" font-family="Times,serif" font-size="14.00">$5</text>
<text text-anchor="middle" x="284" y="-35.3" font-family="Times,serif" font-size="14.00">$and</text>
<polyline fill="none" stroke="black" points="310,-23.5 310,-69.5 "/>
<text text-anchor="middle" x="323" y="-42.8" font-family="Times,serif" font-size="14.00">Y</text>
</g>
<!-- n13&#45;&gt;c21 -->
<g id="edge7" class="edge">
<title>n13:e&#45;&gt;c21:w</title>
<path fill="none" stroke="black" d="M54,-146.5C101.66,-146.5 52.15,-74.46 90,-45.5 137.19,-9.39 164.99,-31.72 220.99,-34.27"/>
<polygon fill="black" stroke="black" points="220.92,-37.77 231,-34.5 221.08,-30.77 220.92,-37.77"/>
</g>
<!-- c24 -->
<g id="node13" class="node">
<title>c24</title>
<polygon fill="none" stroke="black" points="92,-234.5 92,-272.5 193,-272.5 193,-234.5 92,-234.5"/>
<text text-anchor="middle" x="105" y="-249.8" font-family="Times,serif" font-size="14.00">A</text>
<polyline fill="none" stroke="black" points="118,-234.5 118,-272.5 "/>
<text text-anchor="middle" x="142.5" y="-257.3" font-family="Times,serif" font-size="14.00">$2</text>
<text text-anchor="middle" x="142.5" y="-242.3" font-family="Times,serif" font-size="14.00">$not</text>
<polyline fill="none" stroke="black" points="167,-234.5 167,-272.5 "/>
<text text-anchor="middle" x="180" y="-249.8" font-family="Times,serif" font-size="14.00">Y</text>
</g>
<!-- n13&#45;&gt;c24 -->
<g id="edge8" class="edge">
<title>n13:e&#45;&gt;c24:w</title>
<path fill="none" stroke="black" d="M54,-146.5C100.12,-146.5 49.98,-236.67 80.31,-251.46"/>
<polygon fill="black" stroke="black" points="80.01,-254.97 90.5,-253.5 81.38,-248.1 80.01,-254.97"/>
</g>
<!-- n14 -->
<g id="node6" class="node">
<title>n14</title>
<polygon fill="none" stroke="black" points="54,-231.04 54,-245.96 38.18,-256.5 15.82,-256.5 0,-245.96 0,-231.04 15.82,-220.5 38.18,-220.5 54,-231.04"/>
<text text-anchor="middle" x="27" y="-234.8" font-family="Times,serif" font-size="14.00">a</text>
</g>
<!-- n14&#45;&gt;c18 -->
<g id="edge9" class="edge">
<title>n14:e&#45;&gt;c18:w</title>
<path fill="none" stroke="black" d="M54,-238.5C71.88,-238.5 69.94,-216.05 80.39,-207.64"/>
<polygon fill="black" stroke="black" points="81.58,-210.93 90,-204.5 79.41,-204.28 81.58,-210.93"/>
</g>
<!-- c19 -->
<g id="node8" class="node">
<title>c19</title>
<polygon fill="none" stroke="black" points="231,-102.5 231,-148.5 336,-148.5 336,-102.5 231,-102.5"/>
<text text-anchor="middle" x="244.5" y="-133.3" font-family="Times,serif" font-size="14.00">A</text>
<polyline fill="none" stroke="black" points="231,-125.5 258,-125.5 "/>
<text text-anchor="middle" x="244.5" y="-110.3" font-family="Times,serif" font-size="14.00">B</text>
<polyline fill="none" stroke="black" points="258,-102.5 258,-148.5 "/>
<text text-anchor="middle" x="284" y="-129.3" font-family="Times,serif" font-size="14.00">$7</text>
<text text-anchor="middle" x="284" y="-114.3" font-family="Times,serif" font-size="14.00">$and</text>
<polyline fill="none" stroke="black" points="310,-102.5 310,-148.5 "/>
<text text-anchor="middle" x="323" y="-121.8" font-family="Times,serif" font-size="14.00">Y</text>
</g>
<!-- n14&#45;&gt;c19 -->
<g id="edge10" class="edge">
<title>n14:e&#45;&gt;c19:w</title>
<path fill="none" stroke="black" d="M54,-238.5C79.27,-238.5 67.17,-271.68 90,-282.5 132.17,-302.48 158.24,-311.25 195,-282.5 244.24,-243.99 173.83,-149.48 220.81,-138.54"/>
<polygon fill="black" stroke="black" points="221.41,-142 231,-137.5 220.7,-135.03 221.41,-142"/>
</g>
<!-- c22 -->
<g id="node11" class="node">
<title>c22</title>
<polygon fill="none" stroke="black" points="92,-112.5 92,-150.5 193,-150.5 193,-112.5 92,-112.5"/>
<text text-anchor="middle" x="105" y="-127.8" font-family="Times,serif" font-size="14.00">A</text>
<polyline fill="none" stroke="black" points="118,-112.5 118,-150.5 "/>
<text text-anchor="middle" x="142.5" y="-135.3" font-family="Times,serif" font-size="14.00">$4</text>
<text text-anchor="middle" x="142.5" y="-120.3" font-family="Times,serif" font-size="14.00">$not</text>
<polyline fill="none" stroke="black" points="167,-112.5 167,-150.5 "/>
<text text-anchor="middle" x="180" y="-127.8" font-family="Times,serif" font-size="14.00">Y</text>
</g>
<!-- n14&#45;&gt;c22 -->
<g id="edge11" class="edge">
<title>n14:e&#45;&gt;c22:w</title>
<path fill="none" stroke="black" d="M54,-238.5C100.12,-238.5 49.98,-148.33 80.31,-133.54"/>
<polygon fill="black" stroke="black" points="81.38,-136.9 90.5,-131.5 80.01,-130.03 81.38,-136.9"/>
</g>
<!-- c25 -->
<g id="node14" class="node">
<title>c25</title>
<polygon fill="none" stroke="black" points="92,-330.5 92,-368.5 193,-368.5 193,-330.5 92,-330.5"/>
<text text-anchor="middle" x="105" y="-345.8" font-family="Times,serif" font-size="14.00">A</text>
<polyline fill="none" stroke="black" points="118,-330.5 118,-368.5 "/>
<text text-anchor="middle" x="142.5" y="-353.3" font-family="Times,serif" font-size="14.00">$1</text>
<text text-anchor="middle" x="142.5" y="-338.3" font-family="Times,serif" font-size="14.00">$not</text>
<polyline fill="none" stroke="black" points="167,-330.5 167,-368.5 "/>
<text text-anchor="middle" x="180" y="-345.8" font-family="Times,serif" font-size="14.00">Y</text>
</g>
<!-- n14&#45;&gt;c25 -->
<g id="edge12" class="edge">
<title>n14:e&#45;&gt;c25:w</title>
<path fill="none" stroke="black" d="M54,-238.5C101.87,-238.5 48.37,-332.83 80.4,-347.57"/>
<polygon fill="black" stroke="black" points="80.02,-351.06 90.5,-349.5 81.33,-344.19 80.02,-351.06"/>
</g>
<!-- x3 -->
<g id="node18" class="node">
<title>x3</title>
<path fill="none" stroke="black" d="M298.5,-210.5C298.5,-210.5 268.5,-210.5 268.5,-210.5 262.5,-210.5 256.5,-204.5 256.5,-198.5 256.5,-198.5 256.5,-186.5 256.5,-186.5 256.5,-180.5 262.5,-174.5 268.5,-174.5 268.5,-174.5 298.5,-174.5 298.5,-174.5 304.5,-174.5 310.5,-180.5 310.5,-186.5 310.5,-186.5 310.5,-198.5 310.5,-198.5 310.5,-204.5 304.5,-210.5 298.5,-210.5"/>
<text text-anchor="middle" x="283.5" y="-188.8" font-family="Times,serif" font-size="14.00">BUF</text>
</g>
<!-- c18&#45;&gt;x3 -->
<g id="edge1" class="edge">
<title>c18:e&#45;&gt;x3:w</title>
<path fill="none" stroke="black" d="M195,-192.5C218.21,-192.5 226.4,-192.5 245.5,-192.5"/>
<polygon fill="black" stroke="black" points="245.5,-196 255.5,-192.5 245.5,-189 245.5,-196"/>
</g>
<!-- x2 -->
<g id="node17" class="node">
<title>x2</title>
<path fill="none" stroke="black" d="M414,-143.5C414,-143.5 384,-143.5 384,-143.5 378,-143.5 372,-137.5 372,-131.5 372,-131.5 372,-119.5 372,-119.5 372,-113.5 378,-107.5 384,-107.5 384,-107.5 414,-107.5 414,-107.5 420,-107.5 426,-113.5 426,-119.5 426,-119.5 426,-131.5 426,-131.5 426,-137.5 420,-143.5 414,-143.5"/>
<text text-anchor="middle" x="399" y="-121.8" font-family="Times,serif" font-size="14.00">BUF</text>
</g>
<!-- c19&#45;&gt;x2 -->
<g id="edge13" class="edge">
<title>c19:e&#45;&gt;x2:w</title>
<path fill="none" stroke="black" d="M336,-125.5C348,-125.5 353.25,-125.5 361.88,-125.5"/>
<polygon fill="black" stroke="black" points="362,-129 372,-125.5 362,-122 362,-129"/>
</g>
<!-- c20&#45;&gt;c19 -->
<g id="edge14" class="edge">
<title>c20:e&#45;&gt;c19:w</title>
<path fill="none" stroke="black" d="M194.5,-74.5C213.97,-74.5 210.08,-100.74 221.16,-110.17"/>
<polygon fill="black" stroke="black" points="220.41,-113.61 231,-113.5 222.65,-106.98 220.41,-113.61"/>
</g>
<!-- x1 -->
<g id="node16" class="node">
<title>x1</title>
<path fill="none" stroke="black" d="M414,-64.5C414,-64.5 384,-64.5 384,-64.5 378,-64.5 372,-58.5 372,-52.5 372,-52.5 372,-40.5 372,-40.5 372,-34.5 378,-28.5 384,-28.5 384,-28.5 414,-28.5 414,-28.5 420,-28.5 426,-34.5 426,-40.5 426,-40.5 426,-52.5 426,-52.5 426,-58.5 420,-64.5 414,-64.5"/>
<text text-anchor="middle" x="399" y="-42.8" font-family="Times,serif" font-size="14.00">BUF</text>
</g>
<!-- c21&#45;&gt;x1 -->
<g id="edge15" class="edge">
<title>c21:e&#45;&gt;x1:w</title>
<path fill="none" stroke="black" d="M336,-46.5C348,-46.5 353.25,-46.5 361.88,-46.5"/>
<polygon fill="black" stroke="black" points="362,-50 372,-46.5 362,-43 362,-50"/>
</g>
<!-- c22&#45;&gt;c21 -->
<g id="edge16" class="edge">
<title>c22:e&#45;&gt;c21:w</title>
<path fill="none" stroke="black" d="M194.5,-131.5C226.66,-131.5 201.97,-74.1 221.25,-61.1"/>
<polygon fill="black" stroke="black" points="222.24,-64.46 231,-58.5 220.44,-57.69 222.24,-64.46"/>
</g>
<!-- c23 -->
<g id="node12" class="node">
<title>c23</title>
<polygon fill="none" stroke="black" points="231,-278.5 231,-324.5 336,-324.5 336,-278.5 231,-278.5"/>
<text text-anchor="middle" x="244.5" y="-309.3" font-family="Times,serif" font-size="14.00">A</text>
<polyline fill="none" stroke="black" points="231,-301.5 258,-301.5 "/>
<text text-anchor="middle" x="244.5" y="-286.3" font-family="Times,serif" font-size="14.00">B</text>
<polyline fill="none" stroke="black" points="258,-278.5 258,-324.5 "/>
<text text-anchor="middle" x="284" y="-305.3" font-family="Times,serif" font-size="14.00">$3</text>
<text text-anchor="middle" x="284" y="-290.3" font-family="Times,serif" font-size="14.00">$and</text>
<polyline fill="none" stroke="black" points="310,-278.5 310,-324.5 "/>
<text text-anchor="middle" x="323" y="-297.8" font-family="Times,serif" font-size="14.00">Y</text>
</g>
<!-- x0 -->
<g id="node15" class="node">
<title>x0</title>
<path fill="none" stroke="black" d="M414,-319.5C414,-319.5 384,-319.5 384,-319.5 378,-319.5 372,-313.5 372,-307.5 372,-307.5 372,-295.5 372,-295.5 372,-289.5 378,-283.5 384,-283.5 384,-283.5 414,-283.5 414,-283.5 420,-283.5 426,-289.5 426,-295.5 426,-295.5 426,-307.5 426,-307.5 426,-313.5 420,-319.5 414,-319.5"/>
<text text-anchor="middle" x="399" y="-297.8" font-family="Times,serif" font-size="14.00">BUF</text>
</g>
<!-- c23&#45;&gt;x0 -->
<g id="edge17" class="edge">
<title>c23:e&#45;&gt;x0:w</title>
<path fill="none" stroke="black" d="M336,-301.5C348,-301.5 353.25,-301.5 361.88,-301.5"/>
<polygon fill="black" stroke="black" points="362,-305 372,-301.5 362,-298 362,-305"/>
</g>
<!-- c24&#45;&gt;c23 -->
<g id="edge18" class="edge">
<title>c24:e&#45;&gt;c23:w</title>
<path fill="none" stroke="black" d="M194.5,-253.5C213.19,-253.5 210.45,-277.72 221.43,-286.43"/>
<polygon fill="black" stroke="black" points="220.41,-289.78 231,-289.5 222.55,-283.11 220.41,-289.78"/>
</g>
<!-- c25&#45;&gt;c23 -->
<g id="edge19" class="edge">
<title>c25:e&#45;&gt;c23:w</title>
<path fill="none" stroke="black" d="M194.5,-349.5C213.19,-349.5 210.45,-325.28 221.43,-316.57"/>
<polygon fill="black" stroke="black" points="222.55,-319.89 231,-313.5 220.41,-313.22 222.55,-319.89"/>
</g>
<!-- x0&#45;&gt;n12 -->
<g id="edge4" class="edge">
<title>x0:e&#45;&gt;n12:w</title>
<path fill="none" stroke="black" d="M426,-301.5C438,-301.5 443.25,-301.5 451.88,-301.5"/>
<polygon fill="black" stroke="black" points="452,-305 462,-301.5 452,-298 452,-305"/>
</g>
<!-- x1&#45;&gt;n11 -->
<g id="edge3" class="edge">
<title>x1:e&#45;&gt;n11:w</title>
<path fill="none" stroke="black" d="M426,-46.5C438,-46.5 443.25,-46.5 451.88,-46.5"/>
<polygon fill="black" stroke="black" points="452,-50 462,-46.5 452,-43 452,-50"/>
</g>
<!-- x2&#45;&gt;n10 -->
<g id="edge2" class="edge">
<title>x2:e&#45;&gt;n10:w</title>
<path fill="none" stroke="black" d="M426,-125.5C438,-125.5 443.25,-125.5 451.88,-125.5"/>
<polygon fill="black" stroke="black" points="452,-129 462,-125.5 452,-122 452,-129"/>
</g>
<!-- x3&#45;&gt;n9 -->
<g id="edge20" class="edge">
<title>x3:e&#45;&gt;n9:w</title>
<path fill="none" stroke="black" d="M311.5,-192.5C334.71,-192.5 342.9,-192.5 362,-192.5"/>
<polygon fill="black" stroke="black" points="362,-196 372,-192.5 362,-189 362,-196"/>
</g>
</g>
</svg>
