<?xml version="1.0" encoding="UTF-8" standalone="no"?>
<!DOCTYPE svg PUBLIC "-//W3C//DTD SVG 1.1//EN"
 "http://www.w3.org/Graphics/SVG/1.1/DTD/svg11.dtd">
<!-- Generated by graphviz version 2.43.0 (0)
 -->
<!-- Title: four_bit_comp Pages: 1 -->
<svg width="1213pt" height="893pt"
 viewBox="0.00 0.00 1213.48 893.00" xmlns="http://www.w3.org/2000/svg" xmlns:xlink="http://www.w3.org/1999/xlink">
<g id="graph0" class="graph" transform="scale(1 1) rotate(0) translate(4 889)">
<title>four_bit_comp</title>
<polygon fill="white" stroke="transparent" points="-4,4 -4,-889 1209.48,-889 1209.48,4 -4,4"/>
<text text-anchor="middle" x="602.74" y="-7.8" font-family="Times,serif" font-size="14.00">four_bit_comp</text>
<!-- n14 -->
<g id="node1" class="node">
<title>n14</title>
<polygon fill="none" stroke="black" points="54,-364.04 54,-378.96 38.18,-389.5 15.82,-389.5 0,-378.96 0,-364.04 15.82,-353.5 38.18,-353.5 54,-364.04"/>
<text text-anchor="middle" x="27" y="-367.8" font-family="Times,serif" font-size="14.00">a</text>
</g>
<!-- x1 -->
<g id="node8" class="node">
<title>x1</title>
<path fill="none" stroke="black" d="M102,-188.5C102,-188.5 153,-188.5 153,-188.5 159,-188.5 165,-194.5 165,-200.5 165,-200.5 165,-212.5 165,-212.5 165,-218.5 159,-224.5 153,-224.5 153,-224.5 102,-224.5 102,-224.5 96,-224.5 90,-218.5 90,-212.5 90,-212.5 90,-200.5 90,-200.5 90,-194.5 96,-188.5 102,-188.5"/>
<text text-anchor="middle" x="127.5" y="-202.8" font-family="Times,serif" font-size="14.00">3:3 &#45; 0:0</text>
</g>
<!-- n14&#45;&gt;x1 -->
<g id="edge29" class="edge">
<title>n14:e&#45;&gt;x1:w</title>
<path fill="none" stroke="black" d="M54,-371.5C125.25,-371.5 26.04,-222.83 79.98,-207.73"/>
<polygon fill="black" stroke="black" points="80.5,-211.2 90,-206.5 79.65,-204.25 80.5,-211.2"/>
</g>
<!-- x3 -->
<g id="node11" class="node">
<title>x3</title>
<path fill="none" stroke="black" d="M102,-298.5C102,-298.5 153,-298.5 153,-298.5 159,-298.5 165,-304.5 165,-310.5 165,-310.5 165,-322.5 165,-322.5 165,-328.5 159,-334.5 153,-334.5 153,-334.5 102,-334.5 102,-334.5 96,-334.5 90,-328.5 90,-322.5 90,-322.5 90,-310.5 90,-310.5 90,-304.5 96,-298.5 102,-298.5"/>
<text text-anchor="middle" x="127.5" y="-312.8" font-family="Times,serif" font-size="14.00">2:2 &#45; 0:0</text>
</g>
<!-- n14&#45;&gt;x3 -->
<g id="edge30" class="edge">
<title>n14:e&#45;&gt;x3:w</title>
<path fill="none" stroke="black" d="M54,-371.5C78.88,-371.5 66.31,-331.62 80.07,-319.78"/>
<polygon fill="black" stroke="black" points="81.6,-322.96 90,-316.5 79.41,-316.31 81.6,-322.96"/>
</g>
<!-- x5 -->
<g id="node15" class="node">
<title>x5</title>
<path fill="none" stroke="black" d="M102,-628.5C102,-628.5 153,-628.5 153,-628.5 159,-628.5 165,-634.5 165,-640.5 165,-640.5 165,-652.5 165,-652.5 165,-658.5 159,-664.5 153,-664.5 153,-664.5 102,-664.5 102,-664.5 96,-664.5 90,-658.5 90,-652.5 90,-652.5 90,-640.5 90,-640.5 90,-634.5 96,-628.5 102,-628.5"/>
<text text-anchor="middle" x="127.5" y="-642.8" font-family="Times,serif" font-size="14.00">1:1 &#45; 0:0</text>
</g>
<!-- n14&#45;&gt;x5 -->
<g id="edge31" class="edge">
<title>n14:e&#45;&gt;x5:w</title>
<path fill="none" stroke="black" d="M54,-371.5C111.9,-371.5 38.39,-614.21 80.38,-643.6"/>
<polygon fill="black" stroke="black" points="79.42,-646.96 90,-646.5 81.44,-640.26 79.42,-646.96"/>
</g>
<!-- x7 -->
<g id="node18" class="node">
<title>x7</title>
<path fill="none" stroke="black" d="M102,-408.5C102,-408.5 153,-408.5 153,-408.5 159,-408.5 165,-414.5 165,-420.5 165,-420.5 165,-432.5 165,-432.5 165,-438.5 159,-444.5 153,-444.5 153,-444.5 102,-444.5 102,-444.5 96,-444.5 90,-438.5 90,-432.5 90,-432.5 90,-420.5 90,-420.5 90,-414.5 96,-408.5 102,-408.5"/>
<text text-anchor="middle" x="127.5" y="-422.8" font-family="Times,serif" font-size="14.00">0:0 &#45; 0:0</text>
</g>
<!-- n14&#45;&gt;x7 -->
<g id="edge32" class="edge">
<title>n14:e&#45;&gt;x7:w</title>
<path fill="none" stroke="black" d="M54,-371.5C78.88,-371.5 66.31,-411.38 80.07,-423.22"/>
<polygon fill="black" stroke="black" points="79.41,-426.69 90,-426.5 81.6,-420.04 79.41,-426.69"/>
</g>
<!-- x9 -->
<g id="node23" class="node">
<title>x9</title>
<path fill="none" stroke="black" d="M102,-23.5C102,-23.5 153,-23.5 153,-23.5 159,-23.5 165,-29.5 165,-35.5 165,-35.5 165,-47.5 165,-47.5 165,-53.5 159,-59.5 153,-59.5 153,-59.5 102,-59.5 102,-59.5 96,-59.5 90,-53.5 90,-47.5 90,-47.5 90,-35.5 90,-35.5 90,-29.5 96,-23.5 102,-23.5"/>
<text text-anchor="middle" x="127.5" y="-37.8" font-family="Times,serif" font-size="14.00">3:3 &#45; 0:0</text>
</g>
<!-- n14&#45;&gt;x9 -->
<g id="edge33" class="edge">
<title>n14:e&#45;&gt;x9:w</title>
<path fill="none" stroke="black" d="M54,-371.5C124.02,-371.5 27.08,-74.16 80.15,-43.97"/>
<polygon fill="black" stroke="black" points="81.15,-47.32 90,-41.5 79.45,-40.53 81.15,-47.32"/>
</g>
<!-- x11 -->
<g id="node26" class="node">
<title>x11</title>
<path fill="none" stroke="black" d="M102,-78.5C102,-78.5 153,-78.5 153,-78.5 159,-78.5 165,-84.5 165,-90.5 165,-90.5 165,-102.5 165,-102.5 165,-108.5 159,-114.5 153,-114.5 153,-114.5 102,-114.5 102,-114.5 96,-114.5 90,-108.5 90,-102.5 90,-102.5 90,-90.5 90,-90.5 90,-84.5 96,-78.5 102,-78.5"/>
<text text-anchor="middle" x="127.5" y="-92.8" font-family="Times,serif" font-size="14.00">2:2 &#45; 0:0</text>
</g>
<!-- n14&#45;&gt;x11 -->
<g id="edge26" class="edge">
<title>n14:e&#45;&gt;x11:w</title>
<path fill="none" stroke="black" d="M54,-371.5C111.9,-371.5 38.39,-128.79 80.38,-99.4"/>
<polygon fill="black" stroke="black" points="81.44,-102.74 90,-96.5 79.42,-96.04 81.44,-102.74"/>
</g>
<!-- x13 -->
<g id="node30" class="node">
<title>x13</title>
<path fill="none" stroke="black" d="M102,-518.5C102,-518.5 153,-518.5 153,-518.5 159,-518.5 165,-524.5 165,-530.5 165,-530.5 165,-542.5 165,-542.5 165,-548.5 159,-554.5 153,-554.5 153,-554.5 102,-554.5 102,-554.5 96,-554.5 90,-548.5 90,-542.5 90,-542.5 90,-530.5 90,-530.5 90,-524.5 96,-518.5 102,-518.5"/>
<text text-anchor="middle" x="127.5" y="-532.8" font-family="Times,serif" font-size="14.00">1:1 &#45; 0:0</text>
</g>
<!-- n14&#45;&gt;x13 -->
<g id="edge27" class="edge">
<title>n14:e&#45;&gt;x13:w</title>
<path fill="none" stroke="black" d="M54,-371.5C125.25,-371.5 26.04,-520.17 79.98,-535.27"/>
<polygon fill="black" stroke="black" points="79.65,-538.75 90,-536.5 80.5,-531.8 79.65,-538.75"/>
</g>
<!-- x14 -->
<g id="node32" class="node">
<title>x14</title>
<path fill="none" stroke="black" d="M102,-793.5C102,-793.5 153,-793.5 153,-793.5 159,-793.5 165,-799.5 165,-805.5 165,-805.5 165,-817.5 165,-817.5 165,-823.5 159,-829.5 153,-829.5 153,-829.5 102,-829.5 102,-829.5 96,-829.5 90,-823.5 90,-817.5 90,-817.5 90,-805.5 90,-805.5 90,-799.5 96,-793.5 102,-793.5"/>
<text text-anchor="middle" x="127.5" y="-807.8" font-family="Times,serif" font-size="14.00">0:0 &#45; 0:0</text>
</g>
<!-- n14&#45;&gt;x14 -->
<g id="edge28" class="edge">
<title>n14:e&#45;&gt;x14:w</title>
<path fill="none" stroke="black" d="M54,-371.5C148.46,-371.5 3.43,-779.45 80.12,-809.73"/>
<polygon fill="black" stroke="black" points="79.54,-813.18 90,-811.5 80.78,-806.29 79.54,-813.18"/>
</g>
<!-- n15 -->
<g id="node2" class="node">
<title>n15</title>
<polygon fill="none" stroke="black" points="54,-529.04 54,-543.96 38.18,-554.5 15.82,-554.5 0,-543.96 0,-529.04 15.82,-518.5 38.18,-518.5 54,-529.04"/>
<text text-anchor="middle" x="27" y="-532.8" font-family="Times,serif" font-size="14.00">b</text>
</g>
<!-- x0 -->
<g id="node7" class="node">
<title>x0</title>
<path fill="none" stroke="black" d="M102,-353.5C102,-353.5 153,-353.5 153,-353.5 159,-353.5 165,-359.5 165,-365.5 165,-365.5 165,-377.5 165,-377.5 165,-383.5 159,-389.5 153,-389.5 153,-389.5 102,-389.5 102,-389.5 96,-389.5 90,-383.5 90,-377.5 90,-377.5 90,-365.5 90,-365.5 90,-359.5 96,-353.5 102,-353.5"/>
<text text-anchor="middle" x="127.5" y="-367.8" font-family="Times,serif" font-size="14.00">3:3 &#45; 0:0</text>
</g>
<!-- n15&#45;&gt;x0 -->
<g id="edge34" class="edge">
<title>n15:e&#45;&gt;x0:w</title>
<path fill="none" stroke="black" d="M54,-536.5C125.25,-536.5 26.04,-387.83 79.98,-372.73"/>
<polygon fill="black" stroke="black" points="80.5,-376.2 90,-371.5 79.65,-369.25 80.5,-376.2"/>
</g>
<!-- x2 -->
<g id="node10" class="node">
<title>x2</title>
<path fill="none" stroke="black" d="M102,-463.5C102,-463.5 153,-463.5 153,-463.5 159,-463.5 165,-469.5 165,-475.5 165,-475.5 165,-487.5 165,-487.5 165,-493.5 159,-499.5 153,-499.5 153,-499.5 102,-499.5 102,-499.5 96,-499.5 90,-493.5 90,-487.5 90,-487.5 90,-475.5 90,-475.5 90,-469.5 96,-463.5 102,-463.5"/>
<text text-anchor="middle" x="127.5" y="-477.8" font-family="Times,serif" font-size="14.00">2:2 &#45; 0:0</text>
</g>
<!-- n15&#45;&gt;x2 -->
<g id="edge38" class="edge">
<title>n15:e&#45;&gt;x2:w</title>
<path fill="none" stroke="black" d="M54,-536.5C78.88,-536.5 66.31,-496.62 80.07,-484.78"/>
<polygon fill="black" stroke="black" points="81.6,-487.96 90,-481.5 79.41,-481.31 81.6,-487.96"/>
</g>
<!-- x4 -->
<g id="node14" class="node">
<title>x4</title>
<path fill="none" stroke="black" d="M102,-738.5C102,-738.5 153,-738.5 153,-738.5 159,-738.5 165,-744.5 165,-750.5 165,-750.5 165,-762.5 165,-762.5 165,-768.5 159,-774.5 153,-774.5 153,-774.5 102,-774.5 102,-774.5 96,-774.5 90,-768.5 90,-762.5 90,-762.5 90,-750.5 90,-750.5 90,-744.5 96,-738.5 102,-738.5"/>
<text text-anchor="middle" x="127.5" y="-752.8" font-family="Times,serif" font-size="14.00">1:1 &#45; 0:0</text>
</g>
<!-- n15&#45;&gt;x4 -->
<g id="edge39" class="edge">
<title>n15:e&#45;&gt;x4:w</title>
<path fill="none" stroke="black" d="M54,-536.5C149.4,-536.5 2.6,-740.47 80.02,-755.61"/>
<polygon fill="black" stroke="black" points="79.73,-759.1 90,-756.5 80.35,-752.13 79.73,-759.1"/>
</g>
<!-- x6 -->
<g id="node17" class="node">
<title>x6</title>
<path fill="none" stroke="black" d="M102,-573.5C102,-573.5 153,-573.5 153,-573.5 159,-573.5 165,-579.5 165,-585.5 165,-585.5 165,-597.5 165,-597.5 165,-603.5 159,-609.5 153,-609.5 153,-609.5 102,-609.5 102,-609.5 96,-609.5 90,-603.5 90,-597.5 90,-597.5 90,-585.5 90,-585.5 90,-579.5 96,-573.5 102,-573.5"/>
<text text-anchor="middle" x="127.5" y="-587.8" font-family="Times,serif" font-size="14.00">0:0 &#45; 0:0</text>
</g>
<!-- n15&#45;&gt;x6 -->
<g id="edge40" class="edge">
<title>n15:e&#45;&gt;x6:w</title>
<path fill="none" stroke="black" d="M54,-536.5C78.88,-536.5 66.31,-576.38 80.07,-588.22"/>
<polygon fill="black" stroke="black" points="79.41,-591.69 90,-591.5 81.6,-585.04 79.41,-591.69"/>
</g>
<!-- x8 -->
<g id="node22" class="node">
<title>x8</title>
<path fill="none" stroke="black" d="M102,-133.5C102,-133.5 153,-133.5 153,-133.5 159,-133.5 165,-139.5 165,-145.5 165,-145.5 165,-157.5 165,-157.5 165,-163.5 159,-169.5 153,-169.5 153,-169.5 102,-169.5 102,-169.5 96,-169.5 90,-163.5 90,-157.5 90,-157.5 90,-145.5 90,-145.5 90,-139.5 96,-133.5 102,-133.5"/>
<text text-anchor="middle" x="127.5" y="-147.8" font-family="Times,serif" font-size="14.00">3:3 &#45; 0:0</text>
</g>
<!-- n15&#45;&gt;x8 -->
<g id="edge41" class="edge">
<title>n15:e&#45;&gt;x8:w</title>
<path fill="none" stroke="black" d="M54,-536.5C136.24,-536.5 15.34,-183.88 80.12,-153.57"/>
<polygon fill="black" stroke="black" points="80.93,-156.98 90,-151.5 79.49,-150.13 80.93,-156.98"/>
</g>
<!-- x10 -->
<g id="node25" class="node">
<title>x10</title>
<path fill="none" stroke="black" d="M102,-243.5C102,-243.5 153,-243.5 153,-243.5 159,-243.5 165,-249.5 165,-255.5 165,-255.5 165,-267.5 165,-267.5 165,-273.5 159,-279.5 153,-279.5 153,-279.5 102,-279.5 102,-279.5 96,-279.5 90,-273.5 90,-267.5 90,-267.5 90,-255.5 90,-255.5 90,-249.5 96,-243.5 102,-243.5"/>
<text text-anchor="middle" x="127.5" y="-257.8" font-family="Times,serif" font-size="14.00">2:2 &#45; 0:0</text>
</g>
<!-- n15&#45;&gt;x10 -->
<g id="edge35" class="edge">
<title>n15:e&#45;&gt;x10:w</title>
<path fill="none" stroke="black" d="M54,-536.5C111.9,-536.5 38.39,-293.79 80.38,-264.4"/>
<polygon fill="black" stroke="black" points="81.44,-267.74 90,-261.5 79.42,-261.04 81.44,-267.74"/>
</g>
<!-- x12 -->
<g id="node29" class="node">
<title>x12</title>
<path fill="none" stroke="black" d="M102,-683.5C102,-683.5 153,-683.5 153,-683.5 159,-683.5 165,-689.5 165,-695.5 165,-695.5 165,-707.5 165,-707.5 165,-713.5 159,-719.5 153,-719.5 153,-719.5 102,-719.5 102,-719.5 96,-719.5 90,-713.5 90,-707.5 90,-707.5 90,-695.5 90,-695.5 90,-689.5 96,-683.5 102,-683.5"/>
<text text-anchor="middle" x="127.5" y="-697.8" font-family="Times,serif" font-size="14.00">1:1 &#45; 0:0</text>
</g>
<!-- n15&#45;&gt;x12 -->
<g id="edge36" class="edge">
<title>n15:e&#45;&gt;x12:w</title>
<path fill="none" stroke="black" d="M54,-536.5C125.25,-536.5 26.04,-685.17 79.98,-700.27"/>
<polygon fill="black" stroke="black" points="79.65,-703.75 90,-701.5 80.5,-696.8 79.65,-703.75"/>
</g>
<!-- x15 -->
<g id="node33" class="node">
<title>x15</title>
<path fill="none" stroke="black" d="M102,-848.5C102,-848.5 153,-848.5 153,-848.5 159,-848.5 165,-854.5 165,-860.5 165,-860.5 165,-872.5 165,-872.5 165,-878.5 159,-884.5 153,-884.5 153,-884.5 102,-884.5 102,-884.5 96,-884.5 90,-878.5 90,-872.5 90,-872.5 90,-860.5 90,-860.5 90,-854.5 96,-848.5 102,-848.5"/>
<text text-anchor="middle" x="127.5" y="-862.8" font-family="Times,serif" font-size="14.00">0:0 &#45; 0:0</text>
</g>
<!-- n15&#45;&gt;x15 -->
<g id="edge37" class="edge">
<title>n15:e&#45;&gt;x15:w</title>
<path fill="none" stroke="black" d="M54,-536.5C124.02,-536.5 27.08,-833.84 80.15,-864.03"/>
<polygon fill="black" stroke="black" points="79.45,-867.47 90,-866.5 81.15,-860.68 79.45,-867.47"/>
</g>
<!-- n16 -->
<g id="node3" class="node">
<title>n16</title>
<polygon fill="none" stroke="black" points="907.89,-496.04 907.89,-510.96 884.87,-521.5 852.32,-521.5 829.3,-510.96 829.3,-496.04 852.32,-485.5 884.87,-485.5 907.89,-496.04"/>
<text text-anchor="middle" x="868.6" y="-499.8" font-family="Times,serif" font-size="14.00">equal</text>
</g>
<!-- c37 -->
<g id="node36" class="node">
<title>c37</title>
<polygon fill="none" stroke="black" points="943.99,-492 943.99,-561 1070.99,-561 1070.99,-492 943.99,-492"/>
<text text-anchor="middle" x="957.49" y="-545.8" font-family="Times,serif" font-size="14.00">A</text>
<polyline fill="none" stroke="black" points="943.99,-538 970.99,-538 "/>
<text text-anchor="middle" x="957.49" y="-522.8" font-family="Times,serif" font-size="14.00">B</text>
<polyline fill="none" stroke="black" points="943.99,-515 970.99,-515 "/>
<text text-anchor="middle" x="957.49" y="-499.8" font-family="Times,serif" font-size="14.00">C</text>
<polyline fill="none" stroke="black" points="970.99,-492 970.99,-561 "/>
<text text-anchor="middle" x="1007.99" y="-530.3" font-family="Times,serif" font-size="14.00">$143</text>
<text text-anchor="middle" x="1007.99" y="-515.3" font-family="Times,serif" font-size="14.00">$_AOI3_</text>
<polyline fill="none" stroke="black" points="1044.99,-492 1044.99,-561 "/>
<text text-anchor="middle" x="1057.99" y="-522.8" font-family="Times,serif" font-size="14.00">Y</text>
</g>
<!-- n16&#45;&gt;c37 -->
<g id="edge43" class="edge">
<title>n16:e&#45;&gt;c37:w</title>
<path fill="none" stroke="black" d="M907.99,-503.5C919.99,-503.5 925.24,-503.5 933.87,-503.5"/>
<polygon fill="black" stroke="black" points="933.99,-507 943.99,-503.5 933.99,-500 933.99,-507"/>
</g>
<!-- n17 -->
<g id="node4" class="node">
<title>n17</title>
<polygon fill="none" stroke="black" points="1205.73,-442.04 1205.73,-456.96 1176.74,-467.5 1135.74,-467.5 1106.75,-456.96 1106.75,-442.04 1135.74,-431.5 1176.74,-431.5 1205.73,-442.04"/>
<text text-anchor="middle" x="1156.24" y="-445.8" font-family="Times,serif" font-size="14.00">greater</text>
</g>
<!-- n18 -->
<g id="node5" class="node">
<title>n18</title>
<polygon fill="none" stroke="black" points="1187.14,-519.04 1187.14,-533.96 1169.04,-544.5 1143.43,-544.5 1125.33,-533.96 1125.33,-519.04 1143.43,-508.5 1169.04,-508.5 1187.14,-519.04"/>
<text text-anchor="middle" x="1156.24" y="-522.8" font-family="Times,serif" font-size="14.00">less</text>
</g>
<!-- c22 -->
<g id="node6" class="node">
<title>c22</title>
<polygon fill="none" stroke="black" points="211.5,-316.5 211.5,-362.5 347.5,-362.5 347.5,-316.5 211.5,-316.5"/>
<text text-anchor="middle" x="225" y="-347.3" font-family="Times,serif" font-size="14.00">A</text>
<polyline fill="none" stroke="black" points="211.5,-339.5 238.5,-339.5 "/>
<text text-anchor="middle" x="225" y="-324.3" font-family="Times,serif" font-size="14.00">B</text>
<polyline fill="none" stroke="black" points="238.5,-316.5 238.5,-362.5 "/>
<text text-anchor="middle" x="280" y="-343.3" font-family="Times,serif" font-size="14.00">$129</text>
<text text-anchor="middle" x="280" y="-328.3" font-family="Times,serif" font-size="14.00">$_XNOR_</text>
<polyline fill="none" stroke="black" points="321.5,-316.5 321.5,-362.5 "/>
<text text-anchor="middle" x="334.5" y="-335.8" font-family="Times,serif" font-size="14.00">Y</text>
</g>
<!-- n1 -->
<g id="node38" class="node">
<title>n1</title>
<ellipse fill="black" stroke="black" cx="395.8" cy="-339.5" rx="1.8" ry="1.8"/>
</g>
<!-- c22&#45;&gt;n1 -->
<g id="edge17" class="edge">
<title>c22:e&#45;&gt;n1:w</title>
<path fill="none" stroke="black" d="M348.5,-339.5C364.77,-339.5 371.22,-339.5 383.66,-339.5"/>
<polygon fill="black" stroke="black" points="384,-343 394,-339.5 384,-336 384,-343"/>
</g>
<!-- x0&#45;&gt;c22 -->
<g id="edge1" class="edge">
<title>x0:e&#45;&gt;c22:w</title>
<path fill="none" stroke="black" d="M176.95,-369.05C185.37,-365.21 190.1,-357.82 198.51,-353.97"/>
<polygon fill="none" stroke="black" points="176.76,-369.09 171.68,-374.21 165,-371.5 170.07,-366.38 176.76,-369.09"/>
<polygon fill="none" stroke="black" points="198.75,-353.92 203.82,-348.79 210.5,-351.5 205.43,-356.63 198.75,-353.92"/>
</g>
<!-- x1&#45;&gt;c22 -->
<g id="edge2" class="edge">
<title>x1:e&#45;&gt;c22:w</title>
<path fill="none" stroke="black" d="M177.16,-209.03C208.25,-224.77 167.24,-309.28 198.36,-324.99"/>
<polygon fill="none" stroke="black" points="176.75,-208.94 170.06,-211.64 165,-206.5 171.69,-203.8 176.75,-208.94"/>
<polygon fill="none" stroke="black" points="198.75,-325.07 205.44,-322.37 210.5,-327.5 203.81,-330.2 198.75,-325.07"/>
</g>
<!-- c23 -->
<g id="node9" class="node">
<title>c23</title>
<polygon fill="none" stroke="black" points="217.5,-415.5 217.5,-461.5 341.5,-461.5 341.5,-415.5 217.5,-415.5"/>
<text text-anchor="middle" x="231" y="-446.3" font-family="Times,serif" font-size="14.00">A</text>
<polyline fill="none" stroke="black" points="217.5,-438.5 244.5,-438.5 "/>
<text text-anchor="middle" x="231" y="-423.3" font-family="Times,serif" font-size="14.00">B</text>
<polyline fill="none" stroke="black" points="244.5,-415.5 244.5,-461.5 "/>
<text text-anchor="middle" x="280" y="-442.3" font-family="Times,serif" font-size="14.00">$130</text>
<text text-anchor="middle" x="280" y="-427.3" font-family="Times,serif" font-size="14.00">$_XOR_</text>
<polyline fill="none" stroke="black" points="315.5,-415.5 315.5,-461.5 "/>
<text text-anchor="middle" x="328.5" y="-434.8" font-family="Times,serif" font-size="14.00">Y</text>
</g>
<!-- c24 -->
<g id="node12" class="node">
<title>c24</title>
<polygon fill="none" stroke="black" points="433.6,-427.5 433.6,-473.5 590.6,-473.5 590.6,-427.5 433.6,-427.5"/>
<text text-anchor="middle" x="447.1" y="-458.3" font-family="Times,serif" font-size="14.00">A</text>
<polyline fill="none" stroke="black" points="433.6,-450.5 460.6,-450.5 "/>
<text text-anchor="middle" x="447.1" y="-435.3" font-family="Times,serif" font-size="14.00">B</text>
<polyline fill="none" stroke="black" points="460.6,-427.5 460.6,-473.5 "/>
<text text-anchor="middle" x="512.6" y="-454.3" font-family="Times,serif" font-size="14.00">$131</text>
<text text-anchor="middle" x="512.6" y="-439.3" font-family="Times,serif" font-size="14.00">$_ANDNOT_</text>
<polyline fill="none" stroke="black" points="564.6,-427.5 564.6,-473.5 "/>
<text text-anchor="middle" x="577.6" y="-446.8" font-family="Times,serif" font-size="14.00">Y</text>
</g>
<!-- c23&#45;&gt;c24 -->
<g id="edge46" class="edge">
<title>c23:e&#45;&gt;c24:w</title>
<path fill="none" stroke="black" d="M342.5,-438.5C379.35,-438.5 391.05,-438.5 423.38,-438.5"/>
<polygon fill="black" stroke="black" points="423.6,-442 433.6,-438.5 423.6,-435 423.6,-442"/>
</g>
<!-- x2&#45;&gt;c23 -->
<g id="edge3" class="edge">
<title>x2:e&#45;&gt;c23:w</title>
<path fill="none" stroke="black" d="M176.96,-478.86C188.67,-473 192.84,-458.99 204.55,-453.14"/>
<polygon fill="none" stroke="black" points="176.72,-478.91 171.72,-484.11 165,-481.5 170,-476.3 176.72,-478.91"/>
<polygon fill="none" stroke="black" points="204.78,-453.09 209.78,-447.89 216.5,-450.5 211.5,-455.7 204.78,-453.09"/>
</g>
<!-- x3&#45;&gt;c23 -->
<g id="edge4" class="edge">
<title>x3:e&#45;&gt;c23:w</title>
<path fill="none" stroke="black" d="M177.04,-319C206.53,-333.78 174.93,-409.42 204.57,-424.05"/>
<polygon fill="none" stroke="black" points="176.75,-318.94 170.06,-321.64 165,-316.5 171.69,-313.81 176.75,-318.94"/>
<polygon fill="none" stroke="black" points="204.75,-424.08 211.43,-421.37 216.5,-426.5 209.82,-429.21 204.75,-424.08"/>
</g>
<!-- n3 -->
<g id="node40" class="node">
<title>n3</title>
<ellipse fill="black" stroke="black" cx="628.4" cy="-489.5" rx="1.8" ry="1.8"/>
</g>
<!-- c24&#45;&gt;n3 -->
<g id="edge47" class="edge">
<title>c24:e&#45;&gt;n3:w</title>
<path fill="none" stroke="black" d="M590.6,-450.5C609.95,-450.5 605.91,-476.74 616.85,-486.17"/>
<polygon fill="black" stroke="black" points="616.01,-489.59 626.6,-489.5 618.26,-482.96 616.01,-489.59"/>
</g>
<!-- c25 -->
<g id="node13" class="node">
<title>c25</title>
<polygon fill="none" stroke="black" points="217.5,-635.5 217.5,-681.5 341.5,-681.5 341.5,-635.5 217.5,-635.5"/>
<text text-anchor="middle" x="231" y="-666.3" font-family="Times,serif" font-size="14.00">A</text>
<polyline fill="none" stroke="black" points="217.5,-658.5 244.5,-658.5 "/>
<text text-anchor="middle" x="231" y="-643.3" font-family="Times,serif" font-size="14.00">B</text>
<polyline fill="none" stroke="black" points="244.5,-635.5 244.5,-681.5 "/>
<text text-anchor="middle" x="280" y="-662.3" font-family="Times,serif" font-size="14.00">$132</text>
<text text-anchor="middle" x="280" y="-647.3" font-family="Times,serif" font-size="14.00">$_XOR_</text>
<polyline fill="none" stroke="black" points="315.5,-635.5 315.5,-681.5 "/>
<text text-anchor="middle" x="328.5" y="-654.8" font-family="Times,serif" font-size="14.00">Y</text>
</g>
<!-- n4 -->
<g id="node41" class="node">
<title>n4</title>
<ellipse fill="black" stroke="black" cx="395.8" cy="-650.5" rx="1.8" ry="1.8"/>
</g>
<!-- c25&#45;&gt;n4 -->
<g id="edge50" class="edge">
<title>c25:e&#45;&gt;n4:w</title>
<path fill="none" stroke="black" d="M342.5,-658.5C361.86,-658.5 368.65,-652.91 383.89,-651.08"/>
<polygon fill="black" stroke="black" points="384.22,-654.56 394,-650.5 383.82,-647.57 384.22,-654.56"/>
</g>
<!-- x4&#45;&gt;c25 -->
<g id="edge5" class="edge">
<title>x4:e&#45;&gt;c25:w</title>
<path fill="none" stroke="black" d="M176.89,-753.64C199.23,-740.52 182.25,-686.24 204.75,-673.29"/>
<polygon fill="none" stroke="black" points="176.67,-753.69 171.77,-758.98 165,-756.5 169.9,-751.21 176.67,-753.69"/>
<polygon fill="none" stroke="black" points="204.82,-673.27 209.74,-667.99 216.5,-670.5 211.58,-675.78 204.82,-673.27"/>
</g>
<!-- x5&#45;&gt;c25 -->
<g id="edge6" class="edge">
<title>x5:e&#45;&gt;c25:w</title>
<path fill="none" stroke="black" d="M177.11,-646.5C187.36,-646.5 194.05,-646.5 204.27,-646.5"/>
<polygon fill="none" stroke="black" points="177,-646.5 171,-650.5 165,-646.5 171,-642.5 177,-646.5"/>
<polygon fill="none" stroke="black" points="204.5,-646.5 210.5,-642.5 216.5,-646.5 210.5,-650.5 204.5,-646.5"/>
</g>
<!-- c26 -->
<g id="node16" class="node">
<title>c26</title>
<polygon fill="none" stroke="black" points="217.5,-498.5 217.5,-544.5 341.5,-544.5 341.5,-498.5 217.5,-498.5"/>
<text text-anchor="middle" x="231" y="-529.3" font-family="Times,serif" font-size="14.00">A</text>
<polyline fill="none" stroke="black" points="217.5,-521.5 244.5,-521.5 "/>
<text text-anchor="middle" x="231" y="-506.3" font-family="Times,serif" font-size="14.00">B</text>
<polyline fill="none" stroke="black" points="244.5,-498.5 244.5,-544.5 "/>
<text text-anchor="middle" x="280" y="-525.3" font-family="Times,serif" font-size="14.00">$133</text>
<text text-anchor="middle" x="280" y="-510.3" font-family="Times,serif" font-size="14.00">$_XOR_</text>
<polyline fill="none" stroke="black" points="315.5,-498.5 315.5,-544.5 "/>
<text text-anchor="middle" x="328.5" y="-517.8" font-family="Times,serif" font-size="14.00">Y</text>
</g>
<!-- c27 -->
<g id="node19" class="node">
<title>c27</title>
<polygon fill="none" stroke="black" points="449.1,-496.5 449.1,-542.5 575.1,-542.5 575.1,-496.5 449.1,-496.5"/>
<text text-anchor="middle" x="462.6" y="-527.3" font-family="Times,serif" font-size="14.00">A</text>
<polyline fill="none" stroke="black" points="449.1,-519.5 476.1,-519.5 "/>
<text text-anchor="middle" x="462.6" y="-504.3" font-family="Times,serif" font-size="14.00">B</text>
<polyline fill="none" stroke="black" points="476.1,-496.5 476.1,-542.5 "/>
<text text-anchor="middle" x="512.6" y="-523.3" font-family="Times,serif" font-size="14.00">$134</text>
<text text-anchor="middle" x="512.6" y="-508.3" font-family="Times,serif" font-size="14.00">$_NOR_</text>
<polyline fill="none" stroke="black" points="549.1,-496.5 549.1,-542.5 "/>
<text text-anchor="middle" x="562.1" y="-515.8" font-family="Times,serif" font-size="14.00">Y</text>
</g>
<!-- c26&#45;&gt;c27 -->
<g id="edge53" class="edge">
<title>c26:e&#45;&gt;c27:w</title>
<path fill="none" stroke="black" d="M342.5,-521.5C385.96,-521.5 398.97,-530 437.67,-531.33"/>
<polygon fill="black" stroke="black" points="438.04,-534.83 448.1,-531.5 438.16,-527.83 438.04,-534.83"/>
</g>
<!-- x6&#45;&gt;c26 -->
<g id="edge7" class="edge">
<title>x6:e&#45;&gt;c26:w</title>
<path fill="none" stroke="black" d="M176.75,-588.38C192.5,-578.31 188.99,-546.73 204.72,-536.63"/>
<polygon fill="none" stroke="black" points="176.6,-588.42 171.83,-593.83 165,-591.5 169.77,-586.09 176.6,-588.42"/>
<polygon fill="none" stroke="black" points="204.9,-536.59 209.67,-531.18 216.5,-533.5 211.73,-538.91 204.9,-536.59"/>
</g>
<!-- x7&#45;&gt;c26 -->
<g id="edge8" class="edge">
<title>x7:e&#45;&gt;c26:w</title>
<path fill="none" stroke="black" d="M176.95,-429.45C198.36,-442.39 183.11,-493.97 204.75,-506.67"/>
<polygon fill="none" stroke="black" points="176.65,-429.38 169.86,-431.82 165,-426.5 171.78,-424.06 176.65,-429.38"/>
<polygon fill="none" stroke="black" points="204.83,-506.69 211.6,-504.2 216.5,-509.5 209.73,-511.98 204.83,-506.69"/>
</g>
<!-- c28 -->
<g id="node20" class="node">
<title>c28</title>
<polygon fill="none" stroke="black" points="667.2,-480.5 667.2,-526.5 792.2,-526.5 792.2,-480.5 667.2,-480.5"/>
<text text-anchor="middle" x="680.7" y="-511.3" font-family="Times,serif" font-size="14.00">A</text>
<polyline fill="none" stroke="black" points="667.2,-503.5 694.2,-503.5 "/>
<text text-anchor="middle" x="680.7" y="-488.3" font-family="Times,serif" font-size="14.00">B</text>
<polyline fill="none" stroke="black" points="694.2,-480.5 694.2,-526.5 "/>
<text text-anchor="middle" x="730.2" y="-507.3" font-family="Times,serif" font-size="14.00">$135</text>
<text text-anchor="middle" x="730.2" y="-492.3" font-family="Times,serif" font-size="14.00">$_AND_</text>
<polyline fill="none" stroke="black" points="766.2,-480.5 766.2,-526.5 "/>
<text text-anchor="middle" x="779.2" y="-499.8" font-family="Times,serif" font-size="14.00">Y</text>
</g>
<!-- c27&#45;&gt;c28 -->
<g id="edge54" class="edge">
<title>c27:e&#45;&gt;c28:w</title>
<path fill="none" stroke="black" d="M576.1,-519.5C612.58,-519.5 624.09,-516.19 656.08,-515.59"/>
<polygon fill="black" stroke="black" points="656.23,-519.09 666.2,-515.5 656.17,-512.09 656.23,-519.09"/>
</g>
<!-- c28&#45;&gt;n16 -->
<g id="edge42" class="edge">
<title>c28:e&#45;&gt;n16:w</title>
<path fill="none" stroke="black" d="M793.2,-503.5C805.2,-503.5 810.45,-503.5 819.07,-503.5"/>
<polygon fill="black" stroke="black" points="819.2,-507 829.2,-503.5 819.2,-500 819.2,-507"/>
</g>
<!-- c29 -->
<g id="node21" class="node">
<title>c29</title>
<polygon fill="none" stroke="black" points="201,-116.5 201,-162.5 358,-162.5 358,-116.5 201,-116.5"/>
<text text-anchor="middle" x="214.5" y="-147.3" font-family="Times,serif" font-size="14.00">A</text>
<polyline fill="none" stroke="black" points="201,-139.5 228,-139.5 "/>
<text text-anchor="middle" x="214.5" y="-124.3" font-family="Times,serif" font-size="14.00">B</text>
<polyline fill="none" stroke="black" points="228,-116.5 228,-162.5 "/>
<text text-anchor="middle" x="280" y="-143.3" font-family="Times,serif" font-size="14.00">$136</text>
<text text-anchor="middle" x="280" y="-128.3" font-family="Times,serif" font-size="14.00">$_ANDNOT_</text>
<polyline fill="none" stroke="black" points="332,-116.5 332,-162.5 "/>
<text text-anchor="middle" x="345" y="-135.8" font-family="Times,serif" font-size="14.00">Y</text>
</g>
<!-- c32 -->
<g id="node27" class="node">
<title>c32</title>
<polygon fill="none" stroke="black" points="448.6,-238 448.6,-307 575.6,-307 575.6,-238 448.6,-238"/>
<text text-anchor="middle" x="462.1" y="-291.8" font-family="Times,serif" font-size="14.00">A</text>
<polyline fill="none" stroke="black" points="448.6,-284 475.6,-284 "/>
<text text-anchor="middle" x="462.1" y="-268.8" font-family="Times,serif" font-size="14.00">B</text>
<polyline fill="none" stroke="black" points="448.6,-261 475.6,-261 "/>
<text text-anchor="middle" x="462.1" y="-245.8" font-family="Times,serif" font-size="14.00">C</text>
<polyline fill="none" stroke="black" points="475.6,-238 475.6,-307 "/>
<text text-anchor="middle" x="512.6" y="-276.3" font-family="Times,serif" font-size="14.00">$138</text>
<text text-anchor="middle" x="512.6" y="-261.3" font-family="Times,serif" font-size="14.00">$_AOI3_</text>
<polyline fill="none" stroke="black" points="549.6,-238 549.6,-307 "/>
<text text-anchor="middle" x="562.6" y="-268.8" font-family="Times,serif" font-size="14.00">Y</text>
</g>
<!-- c29&#45;&gt;c32 -->
<g id="edge55" class="edge">
<title>c29:e&#45;&gt;c32:w</title>
<path fill="none" stroke="black" d="M358,-139.5C417.23,-139.5 388.15,-236.99 437.03,-248.41"/>
<polygon fill="black" stroke="black" points="436.78,-251.91 447.1,-249.5 437.53,-244.95 436.78,-251.91"/>
</g>
<!-- x8&#45;&gt;c29 -->
<g id="edge9" class="edge">
<title>x8:e&#45;&gt;c29:w</title>
<path fill="none" stroke="black" d="M177.22,-151.5C181.29,-151.5 184.73,-151.5 188.81,-151.5"/>
<polygon fill="none" stroke="black" points="177,-151.5 171,-155.5 165,-151.5 171,-147.5 177,-151.5"/>
<polygon fill="none" stroke="black" points="189,-151.5 195,-147.5 201,-151.5 195,-155.5 189,-151.5"/>
</g>
<!-- x9&#45;&gt;c29 -->
<g id="edge10" class="edge">
<title>x9:e&#45;&gt;c29:w</title>
<path fill="none" stroke="black" d="M176.74,-45.2C193.38,-59.34 172.56,-109.96 189.39,-123.91"/>
<polygon fill="none" stroke="black" points="176.45,-45.1 169.52,-47.12 165,-41.5 171.92,-39.49 176.45,-45.1"/>
<polygon fill="none" stroke="black" points="189.53,-123.96 196.45,-121.91 201,-127.5 194.09,-129.55 189.53,-123.96"/>
</g>
<!-- c30 -->
<g id="node24" class="node">
<title>c30</title>
<polygon fill="none" stroke="black" points="201,-226.5 201,-272.5 358,-272.5 358,-226.5 201,-226.5"/>
<text text-anchor="middle" x="214.5" y="-257.3" font-family="Times,serif" font-size="14.00">A</text>
<polyline fill="none" stroke="black" points="201,-249.5 228,-249.5 "/>
<text text-anchor="middle" x="214.5" y="-234.3" font-family="Times,serif" font-size="14.00">B</text>
<polyline fill="none" stroke="black" points="228,-226.5 228,-272.5 "/>
<text text-anchor="middle" x="280" y="-253.3" font-family="Times,serif" font-size="14.00">$137</text>
<text text-anchor="middle" x="280" y="-238.3" font-family="Times,serif" font-size="14.00">$_ANDNOT_</text>
<polyline fill="none" stroke="black" points="332,-226.5 332,-272.5 "/>
<text text-anchor="middle" x="345" y="-245.8" font-family="Times,serif" font-size="14.00">Y</text>
</g>
<!-- c30&#45;&gt;c32 -->
<g id="edge56" class="edge">
<title>c30:e&#45;&gt;c32:w</title>
<path fill="none" stroke="black" d="M358,-249.5C398.91,-249.5 402.24,-288.26 436.98,-294.62"/>
<polygon fill="black" stroke="black" points="436.83,-298.12 447.1,-295.5 437.44,-291.15 436.83,-298.12"/>
</g>
<!-- x10&#45;&gt;c30 -->
<g id="edge11" class="edge">
<title>x10:e&#45;&gt;c30:w</title>
<path fill="none" stroke="black" d="M177.22,-261.5C181.29,-261.5 184.73,-261.5 188.81,-261.5"/>
<polygon fill="none" stroke="black" points="177,-261.5 171,-265.5 165,-261.5 171,-257.5 177,-261.5"/>
<polygon fill="none" stroke="black" points="189,-261.5 195,-257.5 201,-261.5 195,-265.5 189,-261.5"/>
</g>
<!-- x11&#45;&gt;c30 -->
<g id="edge12" class="edge">
<title>x11:e&#45;&gt;c30:w</title>
<path fill="none" stroke="black" d="M176.92,-98.71C213.43,-115.18 152.74,-218.37 188.86,-235.18"/>
<polygon fill="none" stroke="black" points="176.8,-98.69 170.17,-101.53 165,-96.5 171.63,-93.66 176.8,-98.69"/>
<polygon fill="none" stroke="black" points="189.21,-235.25 195.86,-232.45 201,-237.5 194.36,-240.3 189.21,-235.25"/>
</g>
<!-- n9 -->
<g id="node42" class="node">
<title>n9</title>
<ellipse fill="black" stroke="black" cx="868.6" cy="-437.5" rx="1.8" ry="1.8"/>
</g>
<!-- c32&#45;&gt;n9 -->
<g id="edge57" class="edge">
<title>c32:e&#45;&gt;n9:w</title>
<path fill="none" stroke="black" d="M577.1,-272.5C721.35,-272.5 718.13,-429.86 855.46,-437.23"/>
<polygon fill="black" stroke="black" points="855.51,-440.73 865.6,-437.5 855.69,-433.74 855.51,-440.73"/>
</g>
<!-- c33 -->
<g id="node28" class="node">
<title>c33</title>
<polygon fill="none" stroke="black" points="201,-563.5 201,-609.5 358,-609.5 358,-563.5 201,-563.5"/>
<text text-anchor="middle" x="214.5" y="-594.3" font-family="Times,serif" font-size="14.00">A</text>
<polyline fill="none" stroke="black" points="201,-586.5 228,-586.5 "/>
<text text-anchor="middle" x="214.5" y="-571.3" font-family="Times,serif" font-size="14.00">B</text>
<polyline fill="none" stroke="black" points="228,-563.5 228,-609.5 "/>
<text text-anchor="middle" x="280" y="-590.3" font-family="Times,serif" font-size="14.00">$139</text>
<text text-anchor="middle" x="280" y="-575.3" font-family="Times,serif" font-size="14.00">$_ANDNOT_</text>
<polyline fill="none" stroke="black" points="332,-563.5 332,-609.5 "/>
<text text-anchor="middle" x="345" y="-582.8" font-family="Times,serif" font-size="14.00">Y</text>
</g>
<!-- c36 -->
<g id="node35" class="node">
<title>c36</title>
<polygon fill="none" stroke="black" points="666.2,-550 666.2,-619 793.2,-619 793.2,-550 666.2,-550"/>
<text text-anchor="middle" x="679.7" y="-603.8" font-family="Times,serif" font-size="14.00">A</text>
<polyline fill="none" stroke="black" points="666.2,-596 693.2,-596 "/>
<text text-anchor="middle" x="679.7" y="-580.8" font-family="Times,serif" font-size="14.00">B</text>
<polyline fill="none" stroke="black" points="666.2,-573 693.2,-573 "/>
<text text-anchor="middle" x="679.7" y="-557.8" font-family="Times,serif" font-size="14.00">C</text>
<polyline fill="none" stroke="black" points="693.2,-550 693.2,-619 "/>
<text text-anchor="middle" x="730.2" y="-588.3" font-family="Times,serif" font-size="14.00">$142</text>
<text text-anchor="middle" x="730.2" y="-573.3" font-family="Times,serif" font-size="14.00">$_OAI3_</text>
<polyline fill="none" stroke="black" points="767.2,-550 767.2,-619 "/>
<text text-anchor="middle" x="780.2" y="-580.8" font-family="Times,serif" font-size="14.00">Y</text>
</g>
<!-- c33&#45;&gt;c36 -->
<g id="edge20" class="edge">
<title>c33:e&#45;&gt;c36:w</title>
<path fill="none" stroke="black" d="M358,-586.5C491.5,-586.5 527.41,-584.6 655.96,-584.5"/>
<polygon fill="black" stroke="black" points="656.2,-588 666.2,-584.5 656.2,-581 656.2,-588"/>
</g>
<!-- x12&#45;&gt;c33 -->
<g id="edge13" class="edge">
<title>x12:e&#45;&gt;c33:w</title>
<path fill="none" stroke="black" d="M176.95,-698.3C198.93,-682.96 167.04,-616.92 189.11,-601.66"/>
<polygon fill="none" stroke="black" points="176.59,-698.4 171.83,-703.81 165,-701.5 169.76,-696.09 176.59,-698.4"/>
<polygon fill="none" stroke="black" points="189.4,-601.58 194.17,-596.17 201,-598.5 196.23,-603.91 189.4,-601.58"/>
</g>
<!-- x13&#45;&gt;c33 -->
<g id="edge14" class="edge">
<title>x13:e&#45;&gt;c33:w</title>
<path fill="none" stroke="black" d="M176.12,-541.16C182.7,-548.45 183.29,-562.49 189.84,-569.8"/>
<polygon fill="none" stroke="black" points="176.07,-541.14 168.99,-542.51 165,-536.5 172.08,-535.13 176.07,-541.14"/>
<polygon fill="none" stroke="black" points="189.94,-569.84 197.02,-568.49 201,-574.5 193.92,-575.86 189.94,-569.84"/>
</g>
<!-- c34 -->
<g id="node31" class="node">
<title>c34</title>
<polygon fill="none" stroke="black" points="201,-776.5 201,-822.5 358,-822.5 358,-776.5 201,-776.5"/>
<text text-anchor="middle" x="214.5" y="-807.3" font-family="Times,serif" font-size="14.00">A</text>
<polyline fill="none" stroke="black" points="201,-799.5 228,-799.5 "/>
<text text-anchor="middle" x="214.5" y="-784.3" font-family="Times,serif" font-size="14.00">B</text>
<polyline fill="none" stroke="black" points="228,-776.5 228,-822.5 "/>
<text text-anchor="middle" x="280" y="-803.3" font-family="Times,serif" font-size="14.00">$140</text>
<text text-anchor="middle" x="280" y="-788.3" font-family="Times,serif" font-size="14.00">$_ANDNOT_</text>
<polyline fill="none" stroke="black" points="332,-776.5 332,-822.5 "/>
<text text-anchor="middle" x="345" y="-795.8" font-family="Times,serif" font-size="14.00">Y</text>
</g>
<!-- c35 -->
<g id="node34" class="node">
<title>c35</title>
<polygon fill="none" stroke="black" points="449.1,-639.5 449.1,-685.5 575.1,-685.5 575.1,-639.5 449.1,-639.5"/>
<text text-anchor="middle" x="462.6" y="-670.3" font-family="Times,serif" font-size="14.00">A</text>
<polyline fill="none" stroke="black" points="449.1,-662.5 476.1,-662.5 "/>
<text text-anchor="middle" x="462.6" y="-647.3" font-family="Times,serif" font-size="14.00">B</text>
<polyline fill="none" stroke="black" points="476.1,-639.5 476.1,-685.5 "/>
<text text-anchor="middle" x="512.6" y="-666.3" font-family="Times,serif" font-size="14.00">$141</text>
<text text-anchor="middle" x="512.6" y="-651.3" font-family="Times,serif" font-size="14.00">$_NOR_</text>
<polyline fill="none" stroke="black" points="549.1,-639.5 549.1,-685.5 "/>
<text text-anchor="middle" x="562.1" y="-658.8" font-family="Times,serif" font-size="14.00">Y</text>
</g>
<!-- c34&#45;&gt;c35 -->
<g id="edge21" class="edge">
<title>c34:e&#45;&gt;c35:w</title>
<path fill="none" stroke="black" d="M358,-799.5C422.74,-799.5 384.4,-687.8 437.86,-675.58"/>
<polygon fill="black" stroke="black" points="438.52,-679.03 448.1,-674.5 437.79,-672.07 438.52,-679.03"/>
</g>
<!-- x14&#45;&gt;c34 -->
<g id="edge15" class="edge">
<title>x14:e&#45;&gt;c34:w</title>
<path fill="none" stroke="black" d="M177.22,-811.5C181.29,-811.5 184.73,-811.5 188.81,-811.5"/>
<polygon fill="none" stroke="black" points="177,-811.5 171,-815.5 165,-811.5 171,-807.5 177,-811.5"/>
<polygon fill="none" stroke="black" points="189,-811.5 195,-807.5 201,-811.5 195,-815.5 189,-811.5"/>
</g>
<!-- x15&#45;&gt;c34 -->
<g id="edge16" class="edge">
<title>x15:e&#45;&gt;c34:w</title>
<path fill="none" stroke="black" d="M176.53,-862.69C191.32,-849.37 174.75,-805 189.31,-791.46"/>
<polygon fill="none" stroke="black" points="176.39,-862.73 171.95,-868.41 165,-866.5 169.44,-860.82 176.39,-862.73"/>
<polygon fill="none" stroke="black" points="189.63,-791.35 194.03,-785.64 201,-787.5 196.6,-793.21 189.63,-791.35"/>
</g>
<!-- c35&#45;&gt;c36 -->
<g id="edge22" class="edge">
<title>c35:e&#45;&gt;c36:w</title>
<path fill="none" stroke="black" d="M576.1,-662.5C619.35,-662.5 619.56,-615.76 656.08,-608.45"/>
<polygon fill="black" stroke="black" points="656.57,-611.92 666.2,-607.5 655.92,-604.96 656.57,-611.92"/>
</g>
<!-- n13 -->
<g id="node39" class="node">
<title>n13</title>
<ellipse fill="black" stroke="black" cx="868.6" cy="-549.5" rx="1.8" ry="1.8"/>
</g>
<!-- c36&#45;&gt;n13 -->
<g id="edge23" class="edge">
<title>c36:e&#45;&gt;n13:w</title>
<path fill="none" stroke="black" d="M793.2,-584.5C825.17,-584.5 829.28,-556.49 855.37,-550.59"/>
<polygon fill="black" stroke="black" points="856.02,-554.04 865.6,-549.5 855.28,-547.08 856.02,-554.04"/>
</g>
<!-- c37&#45;&gt;n18 -->
<g id="edge45" class="edge">
<title>c37:e&#45;&gt;n18:w</title>
<path fill="none" stroke="black" d="M1070.99,-526.5C1090.77,-526.5 1098.15,-526.5 1113.86,-526.5"/>
<polygon fill="black" stroke="black" points="1114.24,-530 1124.24,-526.5 1114.24,-523 1114.24,-530"/>
</g>
<!-- c38 -->
<g id="node37" class="node">
<title>c38</title>
<polygon fill="none" stroke="black" points="944.99,-426.5 944.99,-472.5 1069.99,-472.5 1069.99,-426.5 944.99,-426.5"/>
<text text-anchor="middle" x="958.49" y="-457.3" font-family="Times,serif" font-size="14.00">A</text>
<polyline fill="none" stroke="black" points="944.99,-449.5 971.99,-449.5 "/>
<text text-anchor="middle" x="958.49" y="-434.3" font-family="Times,serif" font-size="14.00">B</text>
<polyline fill="none" stroke="black" points="971.99,-426.5 971.99,-472.5 "/>
<text text-anchor="middle" x="1007.99" y="-453.3" font-family="Times,serif" font-size="14.00">$144</text>
<text text-anchor="middle" x="1007.99" y="-438.3" font-family="Times,serif" font-size="14.00">$_AND_</text>
<polyline fill="none" stroke="black" points="1043.99,-426.5 1043.99,-472.5 "/>
<text text-anchor="middle" x="1056.99" y="-445.8" font-family="Times,serif" font-size="14.00">Y</text>
</g>
<!-- c38&#45;&gt;n17 -->
<g id="edge44" class="edge">
<title>c38:e&#45;&gt;n17:w</title>
<path fill="none" stroke="black" d="M1070.99,-449.5C1082.99,-449.5 1088.24,-449.5 1096.87,-449.5"/>
<polygon fill="black" stroke="black" points="1096.99,-453 1106.99,-449.5 1096.99,-446 1096.99,-453"/>
</g>
<!-- n1&#45;&gt;c24 -->
<g id="edge18" class="edge">
<title>n1:e&#45;&gt;c24:w</title>
<path fill="none" stroke="black" d="M397.6,-339.5C450.56,-339.5 386.93,-445.81 423.49,-460.76"/>
<polygon fill="black" stroke="black" points="423.15,-464.25 433.6,-462.5 424.34,-457.36 423.15,-464.25"/>
</g>
<!-- n1&#45;&gt;c32 -->
<g id="edge19" class="edge">
<title>n1:e&#45;&gt;c32:w</title>
<path fill="none" stroke="black" d="M397.6,-339.5C430.72,-339.5 414.57,-285.89 437.3,-274.58"/>
<polygon fill="black" stroke="black" points="438.04,-278 447.1,-272.5 436.59,-271.15 438.04,-278"/>
</g>
<!-- n13&#45;&gt;c37 -->
<g id="edge24" class="edge">
<title>n13:e&#45;&gt;c37:w</title>
<path fill="none" stroke="black" d="M871.6,-549.5C900.13,-549.5 909.68,-549.5 933.92,-549.5"/>
<polygon fill="black" stroke="black" points="933.99,-553 943.99,-549.5 933.99,-546 933.99,-553"/>
</g>
<!-- n13&#45;&gt;c38 -->
<g id="edge25" class="edge">
<title>n13:e&#45;&gt;c38:w</title>
<path fill="none" stroke="black" d="M871.6,-549.5C889.84,-549.5 895.09,-543.4 907.99,-530.5 929.58,-508.91 914.15,-471.66 934.04,-463.23"/>
<polygon fill="black" stroke="black" points="934.74,-466.66 943.99,-461.5 933.54,-459.76 934.74,-466.66"/>
</g>
<!-- n3&#45;&gt;c28 -->
<g id="edge48" class="edge">
<title>n3:e&#45;&gt;c28:w</title>
<path fill="none" stroke="black" d="M630.2,-489.5C642.22,-489.5 647.45,-490.62 656.07,-491.19"/>
<polygon fill="black" stroke="black" points="656.1,-494.69 666.2,-491.5 656.31,-487.69 656.1,-494.69"/>
</g>
<!-- n3&#45;&gt;c36 -->
<g id="edge49" class="edge">
<title>n3:e&#45;&gt;c36:w</title>
<path fill="none" stroke="black" d="M630.2,-489.5C661.78,-489.5 637.78,-545.61 656.33,-558.77"/>
<polygon fill="black" stroke="black" points="655.63,-562.2 666.2,-561.5 657.5,-555.46 655.63,-562.2"/>
</g>
<!-- n4&#45;&gt;c27 -->
<g id="edge51" class="edge">
<title>n4:e&#45;&gt;c27:w</title>
<path fill="none" stroke="black" d="M397.6,-650.5C461.18,-650.5 389.76,-523.24 438.05,-508.82"/>
<polygon fill="black" stroke="black" points="438.64,-512.28 448.1,-507.5 437.73,-505.34 438.64,-512.28"/>
</g>
<!-- n4&#45;&gt;c35 -->
<g id="edge52" class="edge">
<title>n4:e&#45;&gt;c35:w</title>
<path fill="none" stroke="black" d="M397.6,-650.5C416.19,-650.5 423.23,-650.5 437.85,-650.5"/>
<polygon fill="black" stroke="black" points="438.1,-654 448.1,-650.5 438.1,-647 438.1,-654"/>
</g>
<!-- n9&#45;&gt;c37 -->
<g id="edge58" class="edge">
<title>n9:e&#45;&gt;c37:w</title>
<path fill="none" stroke="black" d="M871.6,-437.5C895.3,-437.5 892.95,-458.18 907.99,-476.5 922.79,-494.52 918.63,-518.11 933.98,-524.71"/>
<polygon fill="black" stroke="black" points="933.53,-528.19 943.99,-526.5 934.76,-521.3 933.53,-528.19"/>
</g>
<!-- n9&#45;&gt;c38 -->
<g id="edge59" class="edge">
<title>n9:e&#45;&gt;c38:w</title>
<path fill="none" stroke="black" d="M871.6,-437.5C900.13,-437.5 909.68,-437.5 933.92,-437.5"/>
<polygon fill="black" stroke="black" points="933.99,-441 943.99,-437.5 933.99,-434 933.99,-441"/>
</g>
</g>
</svg>
