<?xml version="1.0" encoding="UTF-8" standalone="no"?>
<!DOCTYPE svg PUBLIC "-//W3C//DTD SVG 1.1//EN"
 "http://www.w3.org/Graphics/SVG/1.1/DTD/svg11.dtd">
<!-- Generated by graphviz version 2.43.0 (0)
 -->
<!-- Title: or_gate Pages: 1 -->
<svg width="302pt" height="121pt"
 viewBox="0.00 0.00 302.00 121.00" xmlns="http://www.w3.org/2000/svg" xmlns:xlink="http://www.w3.org/1999/xlink">
<g id="graph0" class="graph" transform="scale(1 1) rotate(0) translate(4 117)">
<title>or_gate</title>
<polygon fill="white" stroke="transparent" points="-4,4 -4,-117 298,-117 298,4 -4,4"/>
<text text-anchor="middle" x="147" y="-7.8" font-family="Times,serif" font-size="14.00">or_gate</text>
<!-- n1 -->
<g id="node1" class="node">
<title>n1</title>
<polygon fill="none" stroke="black" points="54,-33.54 54,-48.46 38.18,-59 15.82,-59 0,-48.46 0,-33.54 15.82,-23 38.18,-23 54,-33.54"/>
<text text-anchor="middle" x="27" y="-37.3" font-family="Times,serif" font-size="14.00">a</text>
</g>
<!-- c7 -->
<g id="node4" class="node">
<title>c7</title>
<polygon fill="none" stroke="black" points="90,-45 90,-91 204,-91 204,-45 90,-45"/>
<text text-anchor="middle" x="103.5" y="-75.8" font-family="Times,serif" font-size="14.00">A</text>
<polyline fill="none" stroke="black" points="90,-68 117,-68 "/>
<text text-anchor="middle" x="103.5" y="-52.8" font-family="Times,serif" font-size="14.00">B</text>
<polyline fill="none" stroke="black" points="117,-45 117,-91 "/>
<text text-anchor="middle" x="147.5" y="-71.8" font-family="Times,serif" font-size="14.00">$48</text>
<text text-anchor="middle" x="147.5" y="-56.8" font-family="Times,serif" font-size="14.00">$_OR_</text>
<polyline fill="none" stroke="black" points="178,-45 178,-91 "/>
<text text-anchor="middle" x="191" y="-64.3" font-family="Times,serif" font-size="14.00">Y</text>
</g>
<!-- n1&#45;&gt;c7 -->
<g id="edge1" class="edge">
<title>n1:e&#45;&gt;c7:w</title>
<path fill="none" stroke="black" d="M54,-41C67.27,-41 71.16,-49.79 80.04,-53.91"/>
<polygon fill="black" stroke="black" points="79.49,-57.38 90,-56 80.93,-50.53 79.49,-57.38"/>
</g>
<!-- n2 -->
<g id="node2" class="node">
<title>n2</title>
<polygon fill="none" stroke="black" points="54,-87.54 54,-102.46 38.18,-113 15.82,-113 0,-102.46 0,-87.54 15.82,-77 38.18,-77 54,-87.54"/>
<text text-anchor="middle" x="27" y="-91.3" font-family="Times,serif" font-size="14.00">b</text>
</g>
<!-- n2&#45;&gt;c7 -->
<g id="edge2" class="edge">
<title>n2:e&#45;&gt;c7:w</title>
<path fill="none" stroke="black" d="M54,-95C67.27,-95 71.16,-86.21 80.04,-82.09"/>
<polygon fill="black" stroke="black" points="80.93,-85.47 90,-80 79.49,-78.62 80.93,-85.47"/>
</g>
<!-- n3 -->
<g id="node3" class="node">
<title>n3</title>
<polygon fill="none" stroke="black" points="294,-60.54 294,-75.46 278.18,-86 255.82,-86 240,-75.46 240,-60.54 255.82,-50 278.18,-50 294,-60.54"/>
<text text-anchor="middle" x="267" y="-64.3" font-family="Times,serif" font-size="14.00">y</text>
</g>
<!-- c7&#45;&gt;n3 -->
<g id="edge3" class="edge">
<title>c7:e&#45;&gt;n3:w</title>
<path fill="none" stroke="black" d="M204,-68C216,-68 221.25,-68 229.88,-68"/>
<polygon fill="black" stroke="black" points="230,-71.5 240,-68 230,-64.5 230,-71.5"/>
</g>
</g>
</svg>
