<?xml version="1.0" encoding="UTF-8" standalone="no"?>
<!DOCTYPE svg PUBLIC "-//W3C//DTD SVG 1.1//EN"
 "http://www.w3.org/Graphics/SVG/1.1/DTD/svg11.dtd">
<!-- Generated by graphviz version 2.43.0 (0)
 -->
<!-- Title: mux_2_1 Pages: 1 -->
<svg width="345pt" height="175pt"
 viewBox="0.00 0.00 345.01 175.00" xmlns="http://www.w3.org/2000/svg" xmlns:xlink="http://www.w3.org/1999/xlink">
<g id="graph0" class="graph" transform="scale(1 1) rotate(0) translate(4 171)">
<title>mux_2_1</title>
<polygon fill="white" stroke="transparent" points="-4,4 -4,-171 341.01,-171 341.01,4 -4,4"/>
<text text-anchor="middle" x="168.51" y="-7.8" font-family="Times,serif" font-size="14.00">mux_2_1</text>
<!-- n1 -->
<g id="node1" class="node">
<title>n1</title>
<polygon fill="none" stroke="black" points="68.51,-141.54 68.51,-156.46 52.69,-167 30.32,-167 14.51,-156.46 14.51,-141.54 30.32,-131 52.69,-131 68.51,-141.54"/>
<text text-anchor="middle" x="41.51" y="-145.3" font-family="Times,serif" font-size="14.00">a</text>
</g>
<!-- c9 -->
<g id="node5" class="node">
<title>c9</title>
<polygon fill="none" stroke="black" points="119.01,-60.5 119.01,-129.5 247.01,-129.5 247.01,-60.5 119.01,-60.5"/>
<text text-anchor="middle" x="132.51" y="-114.3" font-family="Times,serif" font-size="14.00">A</text>
<polyline fill="none" stroke="black" points="119.01,-106.5 146.01,-106.5 "/>
<text text-anchor="middle" x="132.51" y="-91.3" font-family="Times,serif" font-size="14.00">B</text>
<polyline fill="none" stroke="black" points="119.01,-83.5 146.01,-83.5 "/>
<text text-anchor="middle" x="132.51" y="-68.3" font-family="Times,serif" font-size="14.00">S</text>
<polyline fill="none" stroke="black" points="146.01,-60.5 146.01,-129.5 "/>
<text text-anchor="middle" x="183.51" y="-98.8" font-family="Times,serif" font-size="14.00">$48</text>
<text text-anchor="middle" x="183.51" y="-83.8" font-family="Times,serif" font-size="14.00">$_MUX_</text>
<polyline fill="none" stroke="black" points="221.01,-60.5 221.01,-129.5 "/>
<text text-anchor="middle" x="234.01" y="-91.3" font-family="Times,serif" font-size="14.00">Y</text>
</g>
<!-- n1&#45;&gt;c9 -->
<g id="edge1" class="edge">
<title>n1:e&#45;&gt;c9:w</title>
<path fill="none" stroke="black" d="M69.51,-149C91.61,-149 93.14,-126.52 109.14,-119.85"/>
<polygon fill="black" stroke="black" points="109.83,-123.28 119.01,-118 108.54,-116.4 109.83,-123.28"/>
</g>
<!-- n2 -->
<g id="node2" class="node">
<title>n2</title>
<polygon fill="none" stroke="black" points="68.51,-87.54 68.51,-102.46 52.69,-113 30.32,-113 14.51,-102.46 14.51,-87.54 30.32,-77 52.69,-77 68.51,-87.54"/>
<text text-anchor="middle" x="41.51" y="-91.3" font-family="Times,serif" font-size="14.00">b</text>
</g>
<!-- n2&#45;&gt;c9 -->
<g id="edge2" class="edge">
<title>n2:e&#45;&gt;c9:w</title>
<path fill="none" stroke="black" d="M69.51,-95C87.73,-95 94.63,-95 108.96,-95"/>
<polygon fill="black" stroke="black" points="109.01,-98.5 119.01,-95 109.01,-91.5 109.01,-98.5"/>
</g>
<!-- n3 -->
<g id="node3" class="node">
<title>n3</title>
<polygon fill="none" stroke="black" points="83.02,-33.54 83.02,-48.46 58.7,-59 24.31,-59 -0.01,-48.46 -0.01,-33.54 24.31,-23 58.7,-23 83.02,-33.54"/>
<text text-anchor="middle" x="41.51" y="-37.3" font-family="Times,serif" font-size="14.00">select</text>
</g>
<!-- n3&#45;&gt;c9 -->
<g id="edge3" class="edge">
<title>n3:e&#45;&gt;c9:w</title>
<path fill="none" stroke="black" d="M83.01,-41C100,-41 99.29,-61.07 109.36,-68.91"/>
<polygon fill="black" stroke="black" points="108.42,-72.29 119.01,-72 110.55,-65.62 108.42,-72.29"/>
</g>
<!-- n4 -->
<g id="node4" class="node">
<title>n4</title>
<polygon fill="none" stroke="black" points="337.01,-87.54 337.01,-102.46 321.2,-113 298.83,-113 283.01,-102.46 283.01,-87.54 298.83,-77 321.2,-77 337.01,-87.54"/>
<text text-anchor="middle" x="310.01" y="-91.3" font-family="Times,serif" font-size="14.00">y</text>
</g>
<!-- c9&#45;&gt;n4 -->
<g id="edge4" class="edge">
<title>c9:e&#45;&gt;n4:w</title>
<path fill="none" stroke="black" d="M247.01,-95C259.01,-95 264.26,-95 272.89,-95"/>
<polygon fill="black" stroke="black" points="273.01,-98.5 283.01,-95 273.01,-91.5 273.01,-98.5"/>
</g>
</g>
</svg>
